M48
;Layer_Color=9474304
;FILE_FORMAT=2:4
INCH,TZ
;TYPE=PLATED
T1F00S00C0.0250
T2F00S00C0.0276
T3F00S00C0.0287
T4F00S00C0.0295
T5F00S00C0.0354
T6F00S00C0.0394
T7F00S00C0.0396
T8F00S00C0.0402
T9F00S00C0.0413
T10F00S00C0.0417
T11F00S00C0.0433
T12F00S00C0.0488
T13F00S00C0.0531
T14F00S00C0.0551
T15F00S00C0.0591
T16F00S00C0.0606
T17F00S00C0.0700
T18F00S00C0.0709
T19F00S00C0.0728
;TYPE=NON_PLATED
T21F00S00C0.0618
T22F00S00C0.1378
T23F00S00C0.1660
%
T01
X58680Y1463
X46916Y1000
X40642
Y3500
X46916
X58680Y3963
X64997Y3617
X67497
T02
X12322Y940
Y1727
Y3217
Y4004
X12933Y5954
Y6741
X12941Y8313
Y9100
X40755Y6160
X41542
X65465Y5494
Y4707
T03
X42707Y2841
X45581
X60743Y2807
X63617
T04
X12738Y12677
Y14646
T05
X15510Y700
Y6685
X10845Y8799
Y14784
X17600Y13152
X23584
T06
X15505Y9409
Y10409
X15029Y13142
X16029
T07
X4129Y2953
X5310
Y4134
X4129
X6491
Y2953
X7672
Y4134
T08
X819Y1646
X819Y5360
X31501Y14093
X38057Y12778
X49213Y5315
X65364Y25147
T09
X20759Y2416
Y5369
X29459
Y2416
X35387Y8564
X38340
X44004
X46957
X45495Y15197
X65354
X62781Y8564
X59828
X68234
X71187
X65354Y18150
X45495
T10
X38050Y824
X39509Y824
X52280Y1270
Y4344
X45743Y4124
X42668
X39509Y3898
X38050Y3898
X56895Y5530
Y8605
X60643Y3990
X63717
T11
X65876Y573
X67844Y1557
X48207Y1379
Y3348
X50176Y2363
X65876Y2541
T12
X61598Y1264
X62598
X63598
X45138Y1305
X44138
X43138
T13
X11428Y19578
Y22578
Y25578
Y29578
Y32578
T14
X61120Y26018
Y28018
Y30018
Y32018
X44281Y32089
Y30089
Y28089
Y26089
Y34089
Y36089
X61120Y36018
Y34018
T15
X607Y9226
X9205
T16
X34056Y14047
X36056
X38056
X40056
X65167Y28329
Y30329
Y32329
Y34329
T17
X21260Y17846
X26760
X29510
X35010
Y34646
X29510
X26760
X21260
T18
X6373Y22585
Y25340
Y28096
T19
X684Y12394
Y14394
X5684Y13394
X7184
X8684
T21
X2357Y2382
X9444
T22
X3499Y17565
Y33116
T23
X39070Y17496
X17200
Y34996
X39070
M30
