G04*
G04 #@! TF.GenerationSoftware,Altium Limited,Altium Designer,23.3.1 (30)*
G04*
G04 Layer_Physical_Order=1*
G04 Layer_Color=255*
%FSLAX25Y25*%
%MOIN*%
G70*
G04*
G04 #@! TF.SameCoordinates,6D9CB1A0-9692-42E5-B266-BE6C9D8843E2*
G04*
G04*
G04 #@! TF.FilePolarity,Positive*
G04*
G01*
G75*
%ADD61C,0.08268*%
%ADD62R,0.08268X0.08268*%
%ADD63C,0.05543*%
%ADD64O,0.19685X0.17717*%
%ADD65C,0.06496*%
%ADD66R,0.06496X0.06496*%
%ADD67C,0.04000*%
%ADD68C,0.10630*%
%ADD69R,0.10630X0.10630*%
%ADD70C,0.13780*%
%ADD71C,0.06024*%
%ADD72C,0.09095*%
%ADD73R,0.09095X0.09095*%
%ADD74C,0.06260*%
%ADD75R,0.06260X0.06260*%
%ADD76C,0.05512*%
%ADD77R,0.05512X0.05512*%
%ADD78R,0.05512X0.05512*%
%ADD79R,0.06260X0.06260*%
%ADD80C,0.04874*%
%ADD81C,0.07323*%
%ADD82R,0.07323X0.07323*%
%ADD83C,0.04756*%
%ADD84R,0.04756X0.04756*%
%ADD85C,0.16600*%
%ADD86C,0.10500*%
%ADD87R,0.10500X0.10500*%
%ADD88R,0.09095X0.09095*%
%ADD89C,0.08858*%
%ADD90R,0.04756X0.04756*%
%ADD91C,0.10925*%
%ADD92R,0.10925X0.10925*%
%ADD93O,0.27559X0.17717*%
%ADD94R,0.05937X0.05937*%
%ADD95C,0.05937*%
%ADD96R,0.05937X0.05937*%
%ADD97C,0.06181*%
%ADD98C,0.05925*%
%ADD99R,0.05925X0.05925*%
%ADD100R,0.07992X0.07992*%
%ADD101C,0.07992*%
%ADD102C,0.04331*%
G36*
X413386Y161417D02*
X405512Y153543D01*
X149606D01*
X137795Y141732D01*
X106299D01*
X984Y247047D01*
Y374016D01*
X413386D01*
X413386Y161417D01*
D02*
G37*
G36*
X746502Y1529D02*
X1529D01*
Y88418D01*
X2029Y88625D01*
X2736Y87919D01*
X3974Y87204D01*
X5355Y86834D01*
X6785D01*
X8165Y87204D01*
X9403Y87919D01*
X10414Y88929D01*
X11129Y90167D01*
X11499Y91548D01*
Y92978D01*
X11129Y94359D01*
X10414Y95597D01*
X9403Y96607D01*
X8165Y97322D01*
X6785Y97692D01*
X5355D01*
X3974Y97322D01*
X2736Y96607D01*
X2029Y95901D01*
X1529Y96108D01*
Y119402D01*
X2029Y119609D01*
X2718Y118920D01*
X3776Y118213D01*
X4952Y117726D01*
X6201Y117478D01*
X7474D01*
X8723Y117726D01*
X9899Y118213D01*
X10957Y118920D01*
X11857Y119821D01*
X12565Y120879D01*
X13052Y122055D01*
X13300Y123304D01*
Y124577D01*
X13052Y125825D01*
X12565Y127001D01*
X11857Y128060D01*
X10957Y128960D01*
X9899Y129667D01*
X8723Y130155D01*
X7474Y130403D01*
X6201D01*
X4952Y130155D01*
X3776Y129667D01*
X2718Y128960D01*
X2029Y128272D01*
X1529Y128479D01*
Y139402D01*
X2029Y139609D01*
X2718Y138920D01*
X3776Y138213D01*
X4952Y137726D01*
X6201Y137478D01*
X7474D01*
X8723Y137726D01*
X9899Y138213D01*
X10957Y138920D01*
X11857Y139821D01*
X12565Y140879D01*
X13052Y142055D01*
X13300Y143304D01*
Y144577D01*
X13052Y145825D01*
X12565Y147001D01*
X11857Y148060D01*
X10957Y148960D01*
X9899Y149667D01*
X8723Y150154D01*
X7474Y150403D01*
X6201D01*
X4952Y150154D01*
X3776Y149667D01*
X2718Y148960D01*
X2029Y148272D01*
X1529Y148479D01*
Y244407D01*
X1991Y244598D01*
X105578Y141011D01*
X105909Y140790D01*
X106299Y140713D01*
X137795D01*
X138185Y140790D01*
X138516Y141011D01*
X150029Y152524D01*
X405512D01*
X405902Y152601D01*
X406233Y152822D01*
X414107Y160696D01*
X414328Y161027D01*
X414405Y161417D01*
X414405Y373471D01*
X746502D01*
Y1529D01*
D02*
G37*
%LPC*%
G36*
X391614Y359257D02*
X389783D01*
X387986Y358899D01*
X386293Y358198D01*
X384770Y357181D01*
X383475Y355885D01*
X382457Y354362D01*
X381756Y352669D01*
X381398Y350873D01*
Y349041D01*
X381756Y347244D01*
X382457Y345551D01*
X383475Y344028D01*
X384770Y342733D01*
X386293Y341715D01*
X387986Y341014D01*
X389783Y340657D01*
X391614D01*
X393411Y341014D01*
X395104Y341715D01*
X396627Y342733D01*
X397922Y344028D01*
X398940Y345551D01*
X399641Y347244D01*
X399998Y349041D01*
Y350873D01*
X399641Y352669D01*
X398940Y354362D01*
X397922Y355885D01*
X396627Y357181D01*
X395104Y358198D01*
X393411Y358899D01*
X391614Y359257D01*
D02*
G37*
G36*
X172914D02*
X171082D01*
X169286Y358899D01*
X167593Y358198D01*
X166070Y357181D01*
X164775Y355885D01*
X163757Y354362D01*
X163056Y352669D01*
X162698Y350873D01*
Y349041D01*
X163056Y347244D01*
X163757Y345551D01*
X164775Y344028D01*
X166070Y342733D01*
X167593Y341715D01*
X169286Y341014D01*
X171082Y340657D01*
X172914D01*
X174711Y341014D01*
X176404Y341715D01*
X177927Y342733D01*
X179222Y344028D01*
X180240Y345551D01*
X180941Y347244D01*
X181298Y349041D01*
Y350873D01*
X180941Y352669D01*
X180240Y354362D01*
X179222Y355885D01*
X177927Y357181D01*
X176404Y358198D01*
X174711Y358899D01*
X172914Y359257D01*
D02*
G37*
G36*
X356348Y352707D02*
X343848D01*
Y340207D01*
X356348D01*
Y352707D01*
D02*
G37*
G36*
X295714D02*
X294483D01*
X293275Y352467D01*
X292138Y351995D01*
X291114Y351311D01*
X290244Y350441D01*
X289560Y349417D01*
X289089Y348280D01*
X288848Y347072D01*
Y345841D01*
X289089Y344634D01*
X289560Y343496D01*
X290244Y342473D01*
X291114Y341602D01*
X292138Y340918D01*
X293275Y340447D01*
X294483Y340207D01*
X295714D01*
X296921Y340447D01*
X298059Y340918D01*
X299083Y341602D01*
X299953Y342473D01*
X300637Y343496D01*
X301108Y344634D01*
X301348Y345841D01*
Y347072D01*
X301108Y348280D01*
X300637Y349417D01*
X299953Y350441D01*
X299083Y351311D01*
X298059Y351995D01*
X296921Y352467D01*
X295714Y352707D01*
D02*
G37*
G36*
X268214D02*
X266983D01*
X265775Y352467D01*
X264638Y351995D01*
X263614Y351311D01*
X262744Y350441D01*
X262060Y349417D01*
X261589Y348280D01*
X261348Y347072D01*
Y345841D01*
X261589Y344634D01*
X262060Y343496D01*
X262744Y342473D01*
X263614Y341602D01*
X264638Y340918D01*
X265775Y340447D01*
X266983Y340207D01*
X268214D01*
X269422Y340447D01*
X270559Y340918D01*
X271583Y341602D01*
X272453Y342473D01*
X273137Y343496D01*
X273608Y344634D01*
X273848Y345841D01*
Y347072D01*
X273608Y348280D01*
X273137Y349417D01*
X272453Y350441D01*
X271583Y351311D01*
X270559Y351995D01*
X269422Y352467D01*
X268214Y352707D01*
D02*
G37*
G36*
X213214D02*
X211983D01*
X210775Y352467D01*
X209638Y351995D01*
X208614Y351311D01*
X207744Y350441D01*
X207060Y349417D01*
X206589Y348280D01*
X206348Y347072D01*
Y345841D01*
X206589Y344634D01*
X207060Y343496D01*
X207744Y342473D01*
X208614Y341602D01*
X209638Y340918D01*
X210775Y340447D01*
X211983Y340207D01*
X213214D01*
X214422Y340447D01*
X215559Y340918D01*
X216583Y341602D01*
X217453Y342473D01*
X218137Y343496D01*
X218608Y344634D01*
X218848Y345841D01*
Y347072D01*
X218608Y348280D01*
X218137Y349417D01*
X217453Y350441D01*
X216583Y351311D01*
X215559Y351995D01*
X214422Y352467D01*
X213214Y352707D01*
D02*
G37*
G36*
X35766Y339051D02*
X34212D01*
X32687Y338748D01*
X31252Y338153D01*
X29959Y337289D01*
X28860Y336190D01*
X27997Y334898D01*
X27402Y333462D01*
X27099Y331938D01*
Y330384D01*
X27402Y328860D01*
X27997Y327424D01*
X28860Y326132D01*
X29959Y325033D01*
X31252Y324169D01*
X32687Y323574D01*
X34212Y323271D01*
X35766D01*
X37290Y323574D01*
X38726Y324169D01*
X40018Y325033D01*
X41117Y326132D01*
X41981Y327424D01*
X42575Y328860D01*
X42878Y330384D01*
Y331938D01*
X42575Y333462D01*
X41981Y334898D01*
X41117Y336190D01*
X40018Y337289D01*
X38726Y338153D01*
X37290Y338748D01*
X35766Y339051D01*
D02*
G37*
G36*
X114936Y330772D02*
X113620D01*
X112350Y330432D01*
X111210Y329774D01*
X110280Y328844D01*
X109622Y327705D01*
X109282Y326434D01*
Y325118D01*
X109622Y323848D01*
X110280Y322708D01*
X111210Y321778D01*
X112350Y321121D01*
X113620Y320780D01*
X114936D01*
X116206Y321121D01*
X117346Y321778D01*
X118276Y322708D01*
X118934Y323848D01*
X119274Y325118D01*
Y326434D01*
X118934Y327705D01*
X118276Y328844D01*
X117346Y329774D01*
X116206Y330432D01*
X114936Y330772D01*
D02*
G37*
G36*
Y300772D02*
X113620D01*
X112350Y300432D01*
X111210Y299774D01*
X110280Y298844D01*
X109622Y297705D01*
X109282Y296434D01*
Y295118D01*
X109622Y293848D01*
X110280Y292708D01*
X111210Y291778D01*
X112350Y291121D01*
X113620Y290780D01*
X114936D01*
X116206Y291121D01*
X117346Y291778D01*
X118276Y292708D01*
X118934Y293848D01*
X119274Y295118D01*
Y296434D01*
X118934Y297705D01*
X118276Y298844D01*
X117346Y299774D01*
X116206Y300432D01*
X114936Y300772D01*
D02*
G37*
G36*
X70044Y287279D02*
X57414D01*
Y274649D01*
X70044D01*
Y287279D01*
D02*
G37*
G36*
X114936Y230772D02*
X113620D01*
X112350Y230432D01*
X111210Y229774D01*
X110280Y228844D01*
X109622Y227705D01*
X109282Y226434D01*
Y225118D01*
X109622Y223848D01*
X110280Y222708D01*
X111210Y221778D01*
X112350Y221121D01*
X113620Y220780D01*
X114936D01*
X116206Y221121D01*
X117346Y221778D01*
X118276Y222708D01*
X118934Y223848D01*
X119274Y225118D01*
Y226434D01*
X118934Y227705D01*
X118276Y228844D01*
X117346Y229774D01*
X116206Y230432D01*
X114936Y230772D01*
D02*
G37*
G36*
X64351Y232161D02*
X63107D01*
X61887Y231918D01*
X60738Y231442D01*
X59703Y230751D01*
X58824Y229872D01*
X58133Y228837D01*
X57657Y227688D01*
X57414Y226468D01*
Y225224D01*
X57657Y224004D01*
X58133Y222855D01*
X58824Y221820D01*
X59703Y220941D01*
X60738Y220250D01*
X61887Y219774D01*
X63107Y219531D01*
X64351D01*
X65571Y219774D01*
X66720Y220250D01*
X67755Y220941D01*
X68634Y221820D01*
X69325Y222855D01*
X69801Y224004D01*
X70044Y225224D01*
Y226468D01*
X69801Y227688D01*
X69325Y228837D01*
X68634Y229872D01*
X67755Y230751D01*
X66720Y231442D01*
X65571Y231918D01*
X64351Y232161D01*
D02*
G37*
G36*
X119274Y200772D02*
X109282D01*
Y190780D01*
X119274D01*
Y200772D01*
D02*
G37*
G36*
X350714Y184707D02*
X349483D01*
X348275Y184467D01*
X347138Y183995D01*
X346114Y183311D01*
X345244Y182441D01*
X344560Y181417D01*
X344089Y180280D01*
X343848Y179072D01*
Y177841D01*
X344089Y176634D01*
X344560Y175496D01*
X345244Y174473D01*
X346114Y173602D01*
X347138Y172918D01*
X348275Y172447D01*
X349483Y172207D01*
X350714D01*
X351922Y172447D01*
X353059Y172918D01*
X354083Y173602D01*
X354953Y174473D01*
X355637Y175496D01*
X356108Y176634D01*
X356348Y177841D01*
Y179072D01*
X356108Y180280D01*
X355637Y181417D01*
X354953Y182441D01*
X354083Y183311D01*
X353059Y183995D01*
X351922Y184467D01*
X350714Y184707D01*
D02*
G37*
G36*
X295714D02*
X294483D01*
X293275Y184467D01*
X292138Y183995D01*
X291114Y183311D01*
X290244Y182441D01*
X289560Y181417D01*
X289089Y180280D01*
X288848Y179072D01*
Y177841D01*
X289089Y176634D01*
X289560Y175496D01*
X290244Y174473D01*
X291114Y173602D01*
X292138Y172918D01*
X293275Y172447D01*
X294483Y172207D01*
X295714D01*
X296921Y172447D01*
X298059Y172918D01*
X299083Y173602D01*
X299953Y174473D01*
X300637Y175496D01*
X301108Y176634D01*
X301348Y177841D01*
Y179072D01*
X301108Y180280D01*
X300637Y181417D01*
X299953Y182441D01*
X299083Y183311D01*
X298059Y183995D01*
X296921Y184467D01*
X295714Y184707D01*
D02*
G37*
G36*
X268214D02*
X266983D01*
X265775Y184467D01*
X264638Y183995D01*
X263614Y183311D01*
X262744Y182441D01*
X262060Y181417D01*
X261589Y180280D01*
X261348Y179072D01*
Y177841D01*
X261589Y176634D01*
X262060Y175496D01*
X262744Y174473D01*
X263614Y173602D01*
X264638Y172918D01*
X265775Y172447D01*
X266983Y172207D01*
X268214D01*
X269422Y172447D01*
X270559Y172918D01*
X271583Y173602D01*
X272453Y174473D01*
X273137Y175496D01*
X273608Y176634D01*
X273848Y177841D01*
Y179072D01*
X273608Y180280D01*
X273137Y181417D01*
X272453Y182441D01*
X271583Y183311D01*
X270559Y183995D01*
X269422Y184467D01*
X268214Y184707D01*
D02*
G37*
G36*
X213214D02*
X211983D01*
X210775Y184467D01*
X209638Y183995D01*
X208614Y183311D01*
X207744Y182441D01*
X207060Y181417D01*
X206589Y180280D01*
X206348Y179072D01*
Y177841D01*
X206589Y176634D01*
X207060Y175496D01*
X207744Y174473D01*
X208614Y173602D01*
X209638Y172918D01*
X210775Y172447D01*
X211983Y172207D01*
X213214D01*
X214422Y172447D01*
X215559Y172918D01*
X216583Y173602D01*
X217453Y174473D01*
X218137Y175496D01*
X218608Y176634D01*
X218848Y177841D01*
Y179072D01*
X218608Y180280D01*
X218137Y181417D01*
X217453Y182441D01*
X216583Y183311D01*
X215559Y183995D01*
X214422Y184467D01*
X213214Y184707D01*
D02*
G37*
G36*
X391614Y184257D02*
X389783D01*
X387986Y183899D01*
X386293Y183198D01*
X384770Y182181D01*
X383475Y180885D01*
X382457Y179362D01*
X381756Y177669D01*
X381398Y175873D01*
Y174041D01*
X381756Y172244D01*
X382457Y170552D01*
X383475Y169028D01*
X384770Y167733D01*
X386293Y166715D01*
X387986Y166014D01*
X389783Y165657D01*
X391614D01*
X393411Y166014D01*
X395104Y166715D01*
X396627Y167733D01*
X397922Y169028D01*
X398940Y170552D01*
X399641Y172244D01*
X399998Y174041D01*
Y175873D01*
X399641Y177669D01*
X398940Y179362D01*
X397922Y180885D01*
X396627Y182181D01*
X395104Y183198D01*
X393411Y183899D01*
X391614Y184257D01*
D02*
G37*
G36*
X172914D02*
X171082D01*
X169286Y183899D01*
X167593Y183198D01*
X166070Y182181D01*
X164775Y180885D01*
X163757Y179362D01*
X163056Y177669D01*
X162698Y175873D01*
Y174041D01*
X163056Y172244D01*
X163757Y170552D01*
X164775Y169028D01*
X166070Y167733D01*
X167593Y166715D01*
X169286Y166014D01*
X171082Y165657D01*
X172914D01*
X174711Y166014D01*
X176404Y166715D01*
X177927Y167733D01*
X179222Y169028D01*
X180240Y170552D01*
X180941Y172244D01*
X181298Y174041D01*
Y175873D01*
X180941Y177669D01*
X180240Y179362D01*
X179222Y180885D01*
X177927Y182181D01*
X176404Y183198D01*
X174711Y183899D01*
X172914Y184257D01*
D02*
G37*
G36*
X443485Y366025D02*
X442134D01*
X440828Y365676D01*
X439657Y365000D01*
X438701Y364044D01*
X438026Y362873D01*
X437676Y361567D01*
Y360216D01*
X438026Y358910D01*
X438701Y357739D01*
X439657Y356784D01*
X440828Y356108D01*
X442134Y355758D01*
X443485D01*
X444791Y356108D01*
X445962Y356784D01*
X446918Y357739D01*
X447593Y358910D01*
X447943Y360216D01*
Y361567D01*
X447593Y362873D01*
X446918Y364044D01*
X445962Y365000D01*
X444791Y365676D01*
X443485Y366025D01*
D02*
G37*
G36*
X616331Y365315D02*
X606063D01*
Y355047D01*
X616331D01*
Y365315D01*
D02*
G37*
G36*
X678150Y372111D02*
X676181D01*
X674249Y371920D01*
X672390Y371357D01*
X670678Y370441D01*
X669176Y369209D01*
X667945Y367708D01*
X667029Y365996D01*
X666466Y364137D01*
X666275Y362205D01*
X666466Y360272D01*
X667029Y358414D01*
X667945Y356701D01*
X669176Y355200D01*
X670678Y353968D01*
X672390Y353053D01*
X674249Y352489D01*
X676181Y352299D01*
X678150D01*
X680082Y352489D01*
X681940Y353053D01*
X683653Y353968D01*
X685154Y355200D01*
X686386Y356701D01*
X687301Y358414D01*
X687865Y360272D01*
X688056Y362205D01*
X687865Y364137D01*
X687301Y365996D01*
X686386Y367708D01*
X685154Y369209D01*
X683653Y370441D01*
X681940Y371357D01*
X680082Y371920D01*
X678150Y372111D01*
D02*
G37*
G36*
X709646Y356363D02*
X707677D01*
X705745Y356172D01*
X703886Y355609D01*
X702174Y354693D01*
X700673Y353461D01*
X699441Y351960D01*
X698525Y350248D01*
X697962Y348389D01*
X697771Y346457D01*
X697962Y344524D01*
X698525Y342666D01*
X699441Y340953D01*
X700673Y339452D01*
X702174Y338220D01*
X703886Y337305D01*
X705745Y336741D01*
X707677Y336551D01*
X709646D01*
X711578Y336741D01*
X713437Y337305D01*
X715149Y338220D01*
X716650Y339452D01*
X717882Y340953D01*
X718798Y342666D01*
X719361Y344524D01*
X719552Y346457D01*
X719361Y348389D01*
X718798Y350248D01*
X717882Y351960D01*
X716650Y353461D01*
X715149Y354693D01*
X713437Y355609D01*
X711578Y356172D01*
X709646Y356363D01*
D02*
G37*
G36*
X443485Y346025D02*
X442134D01*
X440828Y345676D01*
X439657Y345000D01*
X438701Y344044D01*
X438026Y342873D01*
X437676Y341567D01*
Y340216D01*
X438026Y338910D01*
X438701Y337739D01*
X439657Y336784D01*
X440828Y336108D01*
X442134Y335758D01*
X443485D01*
X444791Y336108D01*
X445962Y336784D01*
X446918Y337739D01*
X447593Y338910D01*
X447943Y340216D01*
Y341567D01*
X447593Y342873D01*
X446918Y344044D01*
X445962Y345000D01*
X444791Y345676D01*
X443485Y346025D01*
D02*
G37*
G36*
X611873Y345315D02*
X610521D01*
X609216Y344965D01*
X608045Y344289D01*
X607089Y343333D01*
X606413Y342163D01*
X606063Y340857D01*
Y339505D01*
X606413Y338199D01*
X607089Y337029D01*
X608045Y336073D01*
X609216Y335397D01*
X610521Y335047D01*
X611873D01*
X613179Y335397D01*
X614349Y336073D01*
X615305Y337029D01*
X615981Y338199D01*
X616331Y339505D01*
Y340857D01*
X615981Y342163D01*
X615305Y343333D01*
X614349Y344289D01*
X613179Y344965D01*
X611873Y345315D01*
D02*
G37*
G36*
X652400Y328840D02*
X650939D01*
X649528Y328462D01*
X648264Y327732D01*
X647231Y326699D01*
X646500Y325434D01*
X646122Y324023D01*
Y322563D01*
X646500Y321152D01*
X647231Y319887D01*
X648264Y318854D01*
X649528Y318124D01*
X650939Y317746D01*
X652400D01*
X653811Y318124D01*
X655076Y318854D01*
X656109Y319887D01*
X656839Y321152D01*
X657217Y322563D01*
Y324023D01*
X656839Y325434D01*
X656109Y326699D01*
X655076Y327732D01*
X653811Y328462D01*
X652400Y328840D01*
D02*
G37*
G36*
X443485Y326025D02*
X442134D01*
X440828Y325676D01*
X439657Y325000D01*
X438701Y324044D01*
X438026Y322873D01*
X437676Y321568D01*
Y320216D01*
X438026Y318910D01*
X438701Y317739D01*
X439657Y316783D01*
X440828Y316108D01*
X442134Y315758D01*
X443485D01*
X444791Y316108D01*
X445962Y316783D01*
X446918Y317739D01*
X447593Y318910D01*
X447943Y320216D01*
Y321568D01*
X447593Y322873D01*
X446918Y324044D01*
X445962Y325000D01*
X444791Y325676D01*
X443485Y326025D01*
D02*
G37*
G36*
X611873Y325315D02*
X610521D01*
X609216Y324965D01*
X608045Y324289D01*
X607089Y323333D01*
X606413Y322163D01*
X606063Y320857D01*
Y319505D01*
X606413Y318199D01*
X607089Y317029D01*
X608045Y316073D01*
X609216Y315397D01*
X610521Y315047D01*
X611873D01*
X613179Y315397D01*
X614349Y316073D01*
X615305Y317029D01*
X615981Y318199D01*
X616331Y319505D01*
Y320857D01*
X615981Y322163D01*
X615305Y323333D01*
X614349Y324289D01*
X613179Y324965D01*
X611873Y325315D01*
D02*
G37*
G36*
X652400Y308840D02*
X650939D01*
X649528Y308462D01*
X648264Y307732D01*
X647231Y306699D01*
X646500Y305434D01*
X646122Y304023D01*
Y302563D01*
X646500Y301152D01*
X647231Y299887D01*
X648264Y298854D01*
X649528Y298124D01*
X650939Y297746D01*
X652400D01*
X653811Y298124D01*
X655076Y298854D01*
X656109Y299887D01*
X656839Y301152D01*
X657217Y302563D01*
Y304023D01*
X656839Y305434D01*
X656109Y306699D01*
X655076Y307732D01*
X653811Y308462D01*
X652400Y308840D01*
D02*
G37*
G36*
X443485Y306025D02*
X442134D01*
X440828Y305676D01*
X439657Y305000D01*
X438701Y304044D01*
X438026Y302873D01*
X437676Y301568D01*
Y300216D01*
X438026Y298910D01*
X438701Y297739D01*
X439657Y296783D01*
X440828Y296108D01*
X442134Y295758D01*
X443485D01*
X444791Y296108D01*
X445962Y296783D01*
X446918Y297739D01*
X447593Y298910D01*
X447943Y300216D01*
Y301568D01*
X447593Y302873D01*
X446918Y304044D01*
X445962Y305000D01*
X444791Y305676D01*
X443485Y306025D01*
D02*
G37*
G36*
X611873Y305315D02*
X610521D01*
X609216Y304965D01*
X608045Y304289D01*
X607089Y303333D01*
X606413Y302163D01*
X606063Y300857D01*
Y299505D01*
X606413Y298199D01*
X607089Y297029D01*
X608045Y296073D01*
X609216Y295397D01*
X610521Y295047D01*
X611873D01*
X613179Y295397D01*
X614349Y296073D01*
X615305Y297029D01*
X615981Y298199D01*
X616331Y299505D01*
Y300857D01*
X615981Y302163D01*
X615305Y303333D01*
X614349Y304289D01*
X613179Y304965D01*
X611873Y305315D01*
D02*
G37*
G36*
X657217Y288840D02*
X646122D01*
Y277746D01*
X657217D01*
Y288840D01*
D02*
G37*
G36*
X443485Y286025D02*
X442134D01*
X440828Y285676D01*
X439657Y285000D01*
X438701Y284044D01*
X438026Y282873D01*
X437676Y281568D01*
Y280216D01*
X438026Y278910D01*
X438701Y277739D01*
X439657Y276783D01*
X440828Y276108D01*
X442134Y275758D01*
X443485D01*
X444791Y276108D01*
X445962Y276783D01*
X446918Y277739D01*
X447593Y278910D01*
X447943Y280216D01*
Y281568D01*
X447593Y282873D01*
X446918Y284044D01*
X445962Y285000D01*
X444791Y285676D01*
X443485Y286025D01*
D02*
G37*
G36*
X611873Y285315D02*
X610521D01*
X609216Y284965D01*
X608045Y284289D01*
X607089Y283333D01*
X606413Y282163D01*
X606063Y280857D01*
Y279505D01*
X606413Y278199D01*
X607089Y277029D01*
X608045Y276073D01*
X609216Y275397D01*
X610521Y275047D01*
X611873D01*
X613179Y275397D01*
X614349Y276073D01*
X615305Y277029D01*
X615981Y278199D01*
X616331Y279505D01*
Y280857D01*
X615981Y282163D01*
X615305Y283333D01*
X614349Y284289D01*
X613179Y284965D01*
X611873Y285315D01*
D02*
G37*
G36*
X447943Y266025D02*
X437676D01*
Y255758D01*
X447943D01*
Y266025D01*
D02*
G37*
G36*
X611873Y265315D02*
X610521D01*
X609216Y264965D01*
X608045Y264289D01*
X607089Y263333D01*
X606413Y262163D01*
X606063Y260857D01*
Y259505D01*
X606413Y258199D01*
X607089Y257029D01*
X608045Y256073D01*
X609216Y255397D01*
X610521Y255047D01*
X611873D01*
X613179Y255397D01*
X614349Y256073D01*
X615305Y257029D01*
X615981Y258199D01*
X616331Y259505D01*
Y260857D01*
X615981Y262163D01*
X615305Y263333D01*
X614349Y264289D01*
X613179Y264965D01*
X611873Y265315D01*
D02*
G37*
G36*
X654168Y255479D02*
X653112D01*
X652092Y255206D01*
X651177Y254678D01*
X650430Y253931D01*
X649902Y253016D01*
X649628Y251995D01*
Y250939D01*
X649902Y249919D01*
X650430Y249004D01*
X651177Y248257D01*
X652092Y247729D01*
X653112Y247455D01*
X654168D01*
X655189Y247729D01*
X656104Y248257D01*
X656850Y249004D01*
X657379Y249919D01*
X657652Y250939D01*
Y251995D01*
X657379Y253016D01*
X656850Y253931D01*
X656104Y254678D01*
X655189Y255206D01*
X654168Y255479D01*
D02*
G37*
G36*
X35766Y183539D02*
X34212D01*
X32687Y183236D01*
X31252Y182641D01*
X29959Y181778D01*
X28860Y180679D01*
X27997Y179386D01*
X27402Y177951D01*
X27099Y176426D01*
Y174872D01*
X27402Y173348D01*
X27997Y171912D01*
X28860Y170620D01*
X29959Y169521D01*
X31252Y168657D01*
X32687Y168063D01*
X34212Y167759D01*
X35766D01*
X37290Y168063D01*
X38726Y168657D01*
X40018Y169521D01*
X41117Y170620D01*
X41981Y171912D01*
X42575Y173348D01*
X42878Y174872D01*
Y176426D01*
X42575Y177951D01*
X41981Y179386D01*
X41117Y180679D01*
X40018Y181778D01*
X38726Y182641D01*
X37290Y183236D01*
X35766Y183539D01*
D02*
G37*
G36*
X657299Y155725D02*
X649787D01*
Y148214D01*
X657299D01*
Y155725D01*
D02*
G37*
G36*
X458705D02*
X451193D01*
Y148214D01*
X458705D01*
Y155725D01*
D02*
G37*
G36*
X315541Y144937D02*
X314485D01*
X313464Y144664D01*
X312549Y144136D01*
X311803Y143389D01*
X311274Y142474D01*
X311001Y141454D01*
Y140397D01*
X311274Y139377D01*
X311803Y138462D01*
X312549Y137715D01*
X313464Y137187D01*
X314485Y136914D01*
X315541D01*
X316561Y137187D01*
X317476Y137715D01*
X318223Y138462D01*
X318751Y139377D01*
X319024Y140397D01*
Y141454D01*
X318751Y142474D01*
X318223Y143389D01*
X317476Y144136D01*
X316561Y144664D01*
X315541Y144937D01*
D02*
G37*
G36*
X406109Y146020D02*
X395014D01*
Y134926D01*
X406109D01*
Y146020D01*
D02*
G37*
G36*
X381292D02*
X379831D01*
X378420Y145642D01*
X377155Y144912D01*
X376122Y143879D01*
X375392Y142614D01*
X375014Y141203D01*
Y139743D01*
X375392Y138332D01*
X376122Y137067D01*
X377155Y136034D01*
X378420Y135304D01*
X379831Y134926D01*
X381292D01*
X382702Y135304D01*
X383967Y136034D01*
X385000Y137067D01*
X385731Y138332D01*
X386109Y139743D01*
Y141203D01*
X385731Y142614D01*
X385000Y143879D01*
X383967Y144912D01*
X382702Y145642D01*
X381292Y146020D01*
D02*
G37*
G36*
X361292D02*
X359831D01*
X358420Y145642D01*
X357155Y144912D01*
X356122Y143879D01*
X355392Y142614D01*
X355014Y141203D01*
Y139743D01*
X355392Y138332D01*
X356122Y137067D01*
X357155Y136034D01*
X358420Y135304D01*
X359831Y134926D01*
X361292D01*
X362702Y135304D01*
X363967Y136034D01*
X365000Y137067D01*
X365731Y138332D01*
X366109Y139743D01*
Y141203D01*
X365731Y142614D01*
X365000Y143879D01*
X363967Y144912D01*
X362702Y145642D01*
X361292Y146020D01*
D02*
G37*
G36*
X236335Y135294D02*
X235342D01*
X234382Y135037D01*
X233522Y134540D01*
X232820Y133838D01*
X232324Y132978D01*
X232066Y132019D01*
Y131026D01*
X232324Y130067D01*
X232820Y129206D01*
X233522Y128504D01*
X234382Y128008D01*
X235342Y127751D01*
X236335D01*
X237294Y128008D01*
X238154Y128504D01*
X238856Y129206D01*
X239353Y130067D01*
X239610Y131026D01*
Y132019D01*
X239353Y132978D01*
X238856Y133838D01*
X238154Y134540D01*
X237294Y135037D01*
X236335Y135294D01*
D02*
G37*
G36*
X176492D02*
X175499D01*
X174540Y135037D01*
X173680Y134540D01*
X172978Y133838D01*
X172481Y132978D01*
X172224Y132019D01*
Y131026D01*
X172481Y130067D01*
X172978Y129206D01*
X173680Y128504D01*
X174540Y128008D01*
X175499Y127751D01*
X176492D01*
X177451Y128008D01*
X178312Y128504D01*
X179014Y129206D01*
X179510Y130067D01*
X179767Y131026D01*
Y132019D01*
X179510Y132978D01*
X179014Y133838D01*
X178312Y134540D01*
X177451Y135037D01*
X176492Y135294D01*
D02*
G37*
G36*
X87474Y140403D02*
X86201D01*
X84952Y140155D01*
X83776Y139667D01*
X82718Y138960D01*
X81818Y138060D01*
X81110Y137001D01*
X80623Y135825D01*
X80375Y134577D01*
Y133304D01*
X80623Y132055D01*
X81110Y130879D01*
X81818Y129821D01*
X82718Y128920D01*
X83776Y128213D01*
X84952Y127726D01*
X86201Y127478D01*
X87474D01*
X88723Y127726D01*
X89899Y128213D01*
X90957Y128920D01*
X91857Y129821D01*
X92565Y130879D01*
X93052Y132055D01*
X93300Y133304D01*
Y134577D01*
X93052Y135825D01*
X92565Y137001D01*
X91857Y138060D01*
X90957Y138960D01*
X89899Y139667D01*
X88723Y140155D01*
X87474Y140403D01*
D02*
G37*
G36*
X72474D02*
X71201D01*
X69952Y140155D01*
X68776Y139667D01*
X67718Y138960D01*
X66818Y138060D01*
X66110Y137001D01*
X65623Y135825D01*
X65375Y134577D01*
Y133304D01*
X65623Y132055D01*
X66110Y130879D01*
X66818Y129821D01*
X67718Y128920D01*
X68776Y128213D01*
X69952Y127726D01*
X71201Y127478D01*
X72474D01*
X73723Y127726D01*
X74899Y128213D01*
X75957Y128920D01*
X76857Y129821D01*
X77565Y130879D01*
X78052Y132055D01*
X78300Y133304D01*
Y134577D01*
X78052Y135825D01*
X77565Y137001D01*
X76857Y138060D01*
X75957Y138960D01*
X74899Y139667D01*
X73723Y140155D01*
X72474Y140403D01*
D02*
G37*
G36*
X63300D02*
X50375D01*
Y127478D01*
X63300D01*
Y140403D01*
D02*
G37*
G36*
X160813Y135384D02*
X159768D01*
X158759Y135114D01*
X157854Y134591D01*
X157115Y133853D01*
X156592Y132948D01*
X156322Y131938D01*
Y130893D01*
X156592Y129884D01*
X157115Y128979D01*
X157854Y128240D01*
X158759Y127718D01*
X159768Y127447D01*
X160813D01*
X161822Y127718D01*
X162727Y128240D01*
X163466Y128979D01*
X163988Y129884D01*
X164259Y130893D01*
Y131938D01*
X163988Y132948D01*
X163466Y133853D01*
X162727Y134591D01*
X161822Y135114D01*
X160813Y135384D01*
D02*
G37*
G36*
X381096Y131791D02*
X380040D01*
X379019Y131517D01*
X378104Y130989D01*
X377357Y130242D01*
X376829Y129327D01*
X376556Y128307D01*
Y127251D01*
X376829Y126230D01*
X377357Y125315D01*
X378104Y124569D01*
X379019Y124040D01*
X380040Y123767D01*
X381096D01*
X382116Y124040D01*
X383031Y124569D01*
X383778Y125315D01*
X384306Y126230D01*
X384579Y127251D01*
Y128307D01*
X384306Y129327D01*
X383778Y130242D01*
X383031Y130989D01*
X382116Y131517D01*
X381096Y131791D01*
D02*
G37*
G36*
X155571Y98063D02*
X154526D01*
X153516Y97792D01*
X152611Y97270D01*
X151873Y96531D01*
X151350Y95626D01*
X151080Y94617D01*
Y93572D01*
X151350Y92562D01*
X151873Y91657D01*
X152611Y90918D01*
X153516Y90396D01*
X154526Y90126D01*
X155571D01*
X156580Y90396D01*
X157485Y90918D01*
X158224Y91657D01*
X158746Y92562D01*
X159017Y93572D01*
Y94617D01*
X158746Y95626D01*
X158224Y96531D01*
X157485Y97270D01*
X156580Y97792D01*
X155571Y98063D01*
D02*
G37*
G36*
X92769Y97692D02*
X91339D01*
X89958Y97322D01*
X88720Y96607D01*
X87710Y95597D01*
X86995Y94359D01*
X86625Y92978D01*
Y91548D01*
X86995Y90167D01*
X87710Y88929D01*
X88720Y87919D01*
X89958Y87204D01*
X91339Y86834D01*
X92769D01*
X94150Y87204D01*
X95388Y87919D01*
X96398Y88929D01*
X97113Y90167D01*
X97483Y91548D01*
Y92978D01*
X97113Y94359D01*
X96398Y95597D01*
X95388Y96607D01*
X94150Y97322D01*
X92769Y97692D01*
D02*
G37*
G36*
X573082Y90177D02*
X564823D01*
Y81917D01*
X573082D01*
Y90177D01*
D02*
G37*
G36*
X686097Y89397D02*
X678585D01*
Y81885D01*
X686097D01*
Y89397D01*
D02*
G37*
G36*
X631561D02*
X624050D01*
Y81885D01*
X631561D01*
Y89397D01*
D02*
G37*
G36*
X443794D02*
X436283D01*
Y81885D01*
X443794D01*
Y89397D01*
D02*
G37*
G36*
X387153D02*
X379641D01*
Y81885D01*
X387153D01*
Y89397D01*
D02*
G37*
G36*
X132784Y86509D02*
X126028D01*
Y79753D01*
X132784D01*
Y86509D01*
D02*
G37*
G36*
X132704Y70789D02*
X125949D01*
Y64033D01*
X132704D01*
Y70789D01*
D02*
G37*
G36*
X155598Y70618D02*
X154605D01*
X153646Y70361D01*
X152786Y69864D01*
X152083Y69162D01*
X151587Y68302D01*
X151330Y67343D01*
Y66350D01*
X151587Y65391D01*
X152083Y64531D01*
X152786Y63828D01*
X153646Y63332D01*
X154605Y63075D01*
X155598D01*
X156557Y63332D01*
X157417Y63828D01*
X158119Y64531D01*
X158616Y65391D01*
X158873Y66350D01*
Y67343D01*
X158616Y68302D01*
X158119Y69162D01*
X157417Y69864D01*
X156557Y70361D01*
X155598Y70618D01*
D02*
G37*
G36*
X410928Y64974D02*
X404172D01*
Y58218D01*
X410928D01*
Y64974D01*
D02*
G37*
G36*
X658029Y58321D02*
X651273D01*
Y51565D01*
X658029D01*
Y58321D01*
D02*
G37*
G36*
X569496Y59433D02*
X568409D01*
X567358Y59152D01*
X566417Y58608D01*
X565648Y57839D01*
X565104Y56897D01*
X564823Y55847D01*
Y54760D01*
X565104Y53709D01*
X565648Y52767D01*
X566417Y51998D01*
X567358Y51455D01*
X568409Y51173D01*
X569496D01*
X570547Y51455D01*
X571488Y51998D01*
X572257Y52767D01*
X572801Y53709D01*
X573082Y54760D01*
Y55847D01*
X572801Y56897D01*
X572257Y57839D01*
X571488Y58608D01*
X570547Y59152D01*
X569496Y59433D01*
D02*
G37*
G36*
X211348Y57443D02*
X203836D01*
Y49931D01*
X211348D01*
Y57443D01*
D02*
G37*
G36*
X8720Y57610D02*
X7664D01*
X6644Y57337D01*
X5729Y56809D01*
X4982Y56062D01*
X4454Y55147D01*
X4180Y54127D01*
Y53070D01*
X4454Y52050D01*
X4982Y51135D01*
X5729Y50388D01*
X6644Y49860D01*
X7664Y49587D01*
X8720D01*
X9741Y49860D01*
X10655Y50388D01*
X11402Y51135D01*
X11930Y52050D01*
X12204Y53070D01*
Y54127D01*
X11930Y55147D01*
X11402Y56062D01*
X10655Y56809D01*
X9741Y57337D01*
X8720Y57610D01*
D02*
G37*
G36*
X492654Y57161D02*
X491598D01*
X490578Y56888D01*
X489663Y56360D01*
X488916Y55613D01*
X488388Y54698D01*
X488114Y53678D01*
Y52621D01*
X488388Y51601D01*
X488916Y50686D01*
X489663Y49939D01*
X490578Y49411D01*
X491598Y49138D01*
X492654D01*
X493675Y49411D01*
X494589Y49939D01*
X495336Y50686D01*
X495864Y51601D01*
X496138Y52621D01*
Y53678D01*
X495864Y54698D01*
X495336Y55613D01*
X494589Y56360D01*
X493675Y56888D01*
X492654Y57161D01*
D02*
G37*
G36*
X526925Y47570D02*
X518665D01*
Y39310D01*
X526925D01*
Y47570D01*
D02*
G37*
G36*
X77245Y45305D02*
X76202D01*
X75194Y45035D01*
X74291Y44513D01*
X73553Y43775D01*
X73031Y42872D01*
X72761Y41864D01*
Y40821D01*
X73031Y39813D01*
X73553Y38909D01*
X74291Y38171D01*
X75194Y37650D01*
X76202Y37380D01*
X77245D01*
X78253Y37650D01*
X79157Y38171D01*
X79895Y38909D01*
X80416Y39813D01*
X80686Y40821D01*
Y41864D01*
X80416Y42872D01*
X79895Y43775D01*
X79157Y44513D01*
X78253Y45035D01*
X77245Y45305D01*
D02*
G37*
G36*
X65434D02*
X64391D01*
X63383Y45035D01*
X62480Y44513D01*
X61742Y43775D01*
X61220Y42872D01*
X60950Y41864D01*
Y40821D01*
X61220Y39813D01*
X61742Y38909D01*
X62480Y38171D01*
X63383Y37650D01*
X64391Y37380D01*
X65434D01*
X66442Y37650D01*
X67346Y38171D01*
X68084Y38909D01*
X68605Y39813D01*
X68875Y40821D01*
Y41864D01*
X68605Y42872D01*
X68084Y43775D01*
X67346Y44513D01*
X66442Y45035D01*
X65434Y45305D01*
D02*
G37*
G36*
X53623D02*
X52580D01*
X51572Y45035D01*
X50669Y44513D01*
X49931Y43775D01*
X49409Y42872D01*
X49139Y41864D01*
Y40821D01*
X49409Y39813D01*
X49931Y38909D01*
X50669Y38171D01*
X51572Y37650D01*
X52580Y37380D01*
X53623D01*
X54631Y37650D01*
X55535Y38171D01*
X56273Y38909D01*
X56794Y39813D01*
X57064Y40821D01*
Y41864D01*
X56794Y42872D01*
X56273Y43775D01*
X55535Y44513D01*
X54631Y45035D01*
X53623Y45305D01*
D02*
G37*
G36*
X45253D02*
X37328D01*
Y37380D01*
X45253D01*
Y45305D01*
D02*
G37*
G36*
X457970Y45366D02*
X456883D01*
X455832Y45084D01*
X454891Y44541D01*
X454122Y43772D01*
X453578Y42830D01*
X453297Y41780D01*
Y40692D01*
X453578Y39642D01*
X454122Y38700D01*
X454891Y37931D01*
X455832Y37387D01*
X456883Y37106D01*
X457970D01*
X459021Y37387D01*
X459962Y37931D01*
X460731Y38700D01*
X461275Y39642D01*
X461556Y40692D01*
Y41780D01*
X461275Y42830D01*
X460731Y43772D01*
X459962Y44541D01*
X459021Y45084D01*
X457970Y45366D01*
D02*
G37*
G36*
X430812D02*
X422552D01*
Y37106D01*
X430812D01*
Y45366D01*
D02*
G37*
G36*
X587191Y42633D02*
X586402D01*
X585639Y42429D01*
X584955Y42034D01*
X584396Y41475D01*
X584001Y40791D01*
X583797Y40028D01*
Y39238D01*
X584001Y38475D01*
X584396Y37791D01*
X584955Y37233D01*
X585639Y36838D01*
X586402Y36633D01*
X587191D01*
X587955Y36838D01*
X588639Y37233D01*
X589197Y37791D01*
X589592Y38475D01*
X589797Y39238D01*
Y40028D01*
X589592Y40791D01*
X589197Y41475D01*
X588639Y42034D01*
X587955Y42429D01*
X587191Y42633D01*
D02*
G37*
G36*
X637717Y44035D02*
X636630D01*
X635579Y43753D01*
X634638Y43209D01*
X633869Y42441D01*
X633325Y41499D01*
X633044Y40448D01*
Y39361D01*
X633325Y38311D01*
X633869Y37369D01*
X634638Y36600D01*
X635579Y36056D01*
X636630Y35775D01*
X637717D01*
X638768Y36056D01*
X639709Y36600D01*
X640478Y37369D01*
X641022Y38311D01*
X641303Y39361D01*
Y40448D01*
X641022Y41499D01*
X640478Y42441D01*
X639709Y43209D01*
X638768Y43753D01*
X637717Y44035D01*
D02*
G37*
G36*
X610559D02*
X602299D01*
Y35775D01*
X610559D01*
Y44035D01*
D02*
G37*
G36*
X395638Y43114D02*
X394550D01*
X393500Y42832D01*
X392558Y42289D01*
X391789Y41520D01*
X391246Y40578D01*
X390964Y39528D01*
Y38440D01*
X391246Y37390D01*
X391789Y36448D01*
X392558Y35679D01*
X393500Y35135D01*
X394550Y34854D01*
X395638D01*
X396688Y35135D01*
X397630Y35679D01*
X398399Y36448D01*
X398942Y37390D01*
X399224Y38440D01*
Y39528D01*
X398942Y40578D01*
X398399Y41520D01*
X397630Y42289D01*
X396688Y42832D01*
X395638Y43114D01*
D02*
G37*
G36*
X384627Y43114D02*
X376367D01*
Y34854D01*
X384627D01*
Y43114D01*
D02*
G37*
G36*
X650367Y39170D02*
X649577D01*
X648814Y38966D01*
X648130Y38571D01*
X647572Y38012D01*
X647177Y37328D01*
X646972Y36565D01*
Y35775D01*
X647177Y35012D01*
X647572Y34328D01*
X648130Y33770D01*
X648814Y33375D01*
X649577Y33170D01*
X650367D01*
X651130Y33375D01*
X651814Y33770D01*
X652373Y34328D01*
X652768Y35012D01*
X652972Y35775D01*
Y36565D01*
X652768Y37328D01*
X652373Y38012D01*
X651814Y38571D01*
X651130Y38966D01*
X650367Y39170D01*
D02*
G37*
G36*
X469559Y38001D02*
X468770D01*
X468007Y37797D01*
X467322Y37402D01*
X466764Y36844D01*
X466369Y36160D01*
X466164Y35397D01*
Y34607D01*
X466369Y33844D01*
X466764Y33160D01*
X467322Y32601D01*
X468007Y32206D01*
X468770Y32002D01*
X469559D01*
X470322Y32206D01*
X471006Y32601D01*
X471565Y33160D01*
X471960Y33844D01*
X472164Y34607D01*
Y35397D01*
X471960Y36160D01*
X471565Y36844D01*
X471006Y37402D01*
X470322Y37797D01*
X469559Y38001D01*
D02*
G37*
G36*
X406815D02*
X406026D01*
X405263Y37797D01*
X404578Y37402D01*
X404020Y36844D01*
X403625Y36160D01*
X403421Y35397D01*
Y34607D01*
X403625Y33844D01*
X404020Y33160D01*
X404578Y32601D01*
X405263Y32206D01*
X406026Y32002D01*
X406815D01*
X407579Y32206D01*
X408263Y32601D01*
X408821Y33160D01*
X409216Y33844D01*
X409421Y34607D01*
Y35397D01*
X409216Y36160D01*
X408821Y36844D01*
X408263Y37402D01*
X407579Y37797D01*
X406815Y38001D01*
D02*
G37*
G36*
X486321Y37725D02*
X477825D01*
Y29229D01*
X486321D01*
Y37725D01*
D02*
G37*
G36*
X126594Y35548D02*
X119838D01*
Y28792D01*
X126594D01*
Y35548D01*
D02*
G37*
G36*
X41813Y33494D02*
X40769D01*
X39761Y33224D01*
X38858Y32702D01*
X38120Y31964D01*
X37598Y31061D01*
X37328Y30053D01*
Y29010D01*
X37598Y28002D01*
X38120Y27098D01*
X38858Y26360D01*
X39761Y25839D01*
X40769Y25569D01*
X41813D01*
X42820Y25839D01*
X43724Y26360D01*
X44462Y27098D01*
X44983Y28002D01*
X45253Y29010D01*
Y30053D01*
X44983Y31061D01*
X44462Y31964D01*
X43724Y32702D01*
X42820Y33224D01*
X41813Y33494D01*
D02*
G37*
G36*
X456264Y31847D02*
X455359D01*
X454485Y31612D01*
X453701Y31160D01*
X453061Y30520D01*
X452609Y29736D01*
X452375Y28862D01*
Y27957D01*
X452609Y27083D01*
X453061Y26299D01*
X453701Y25659D01*
X454485Y25207D01*
X455359Y24973D01*
X456264D01*
X457138Y25207D01*
X457922Y25659D01*
X458562Y26299D01*
X459014Y27083D01*
X459248Y27957D01*
Y28862D01*
X459014Y29736D01*
X458562Y30520D01*
X457922Y31160D01*
X457138Y31612D01*
X456264Y31847D01*
D02*
G37*
G36*
X427524D02*
X426619D01*
X425745Y31612D01*
X424961Y31160D01*
X424321Y30520D01*
X423869Y29736D01*
X423634Y28862D01*
Y27957D01*
X423869Y27083D01*
X424321Y26299D01*
X424961Y25659D01*
X425745Y25207D01*
X426619Y24973D01*
X427524D01*
X428398Y25207D01*
X429182Y25659D01*
X429822Y26299D01*
X430274Y27083D01*
X430508Y27957D01*
Y28862D01*
X430274Y29736D01*
X429822Y30520D01*
X429182Y31160D01*
X428398Y31612D01*
X427524Y31847D01*
D02*
G37*
G36*
X636624Y31505D02*
X635719D01*
X634845Y31271D01*
X634061Y30818D01*
X633421Y30178D01*
X632969Y29395D01*
X632735Y28521D01*
Y27615D01*
X632969Y26741D01*
X633421Y25958D01*
X634061Y25318D01*
X634845Y24865D01*
X635719Y24631D01*
X636624D01*
X637498Y24865D01*
X638282Y25318D01*
X638922Y25958D01*
X639374Y26741D01*
X639609Y27615D01*
Y28521D01*
X639374Y29395D01*
X638922Y30178D01*
X638282Y30818D01*
X637498Y31271D01*
X636624Y31505D01*
D02*
G37*
G36*
X607884D02*
X606979D01*
X606105Y31271D01*
X605321Y30818D01*
X604681Y30178D01*
X604229Y29395D01*
X603994Y28521D01*
Y27615D01*
X604229Y26741D01*
X604681Y25958D01*
X605321Y25318D01*
X606105Y24865D01*
X606979Y24631D01*
X607884D01*
X608758Y24865D01*
X609542Y25318D01*
X610182Y25958D01*
X610634Y26741D01*
X610868Y27615D01*
Y28521D01*
X610634Y29395D01*
X610182Y30178D01*
X609542Y30818D01*
X608758Y31271D01*
X607884Y31505D01*
D02*
G37*
G36*
X663006Y29661D02*
X654510D01*
Y21165D01*
X663006D01*
Y29661D01*
D02*
G37*
G36*
X298347Y27916D02*
X290835D01*
Y20404D01*
X298347D01*
Y27916D01*
D02*
G37*
G36*
X94979Y27913D02*
X93902D01*
X92861Y27634D01*
X91929Y27096D01*
X91167Y26334D01*
X90629Y25401D01*
X90350Y24361D01*
Y23284D01*
X90629Y22244D01*
X91167Y21311D01*
X91929Y20549D01*
X92861Y20011D01*
X93902Y19732D01*
X94979D01*
X96019Y20011D01*
X96952Y20549D01*
X97714Y21311D01*
X98252Y22244D01*
X98531Y23284D01*
Y24361D01*
X98252Y25401D01*
X97714Y26334D01*
X96952Y27096D01*
X96019Y27634D01*
X94979Y27913D01*
D02*
G37*
G36*
X24113D02*
X23036D01*
X21995Y27634D01*
X21063Y27096D01*
X20301Y26334D01*
X19762Y25401D01*
X19484Y24361D01*
Y23284D01*
X19762Y22244D01*
X20301Y21311D01*
X21063Y20549D01*
X21995Y20011D01*
X23036Y19732D01*
X24113D01*
X25153Y20011D01*
X26086Y20549D01*
X26847Y21311D01*
X27386Y22244D01*
X27665Y23284D01*
Y24361D01*
X27386Y25401D01*
X26847Y26334D01*
X26086Y27096D01*
X25153Y27634D01*
X24113Y27913D01*
D02*
G37*
G36*
X709646Y37465D02*
X707677D01*
X705745Y37275D01*
X703886Y36711D01*
X702174Y35796D01*
X700673Y34564D01*
X699441Y33062D01*
X698525Y31350D01*
X697962Y29492D01*
X697771Y27559D01*
X697962Y25627D01*
X698525Y23768D01*
X699441Y22056D01*
X700673Y20554D01*
X702174Y19323D01*
X703886Y18407D01*
X705745Y17843D01*
X707677Y17653D01*
X709646D01*
X711578Y17843D01*
X713437Y18407D01*
X715149Y19323D01*
X716650Y20554D01*
X717882Y22056D01*
X718798Y23768D01*
X719361Y25627D01*
X719552Y27559D01*
X719361Y29492D01*
X718798Y31350D01*
X717882Y33062D01*
X716650Y34564D01*
X715149Y35796D01*
X713437Y36711D01*
X711578Y37275D01*
X709646Y37465D01*
D02*
G37*
G36*
X126594Y20648D02*
X119838D01*
Y13892D01*
X126594D01*
Y20648D01*
D02*
G37*
G36*
X8720Y20474D02*
X7664D01*
X6644Y20200D01*
X5729Y19672D01*
X4982Y18925D01*
X4454Y18010D01*
X4180Y16990D01*
Y15934D01*
X4454Y14913D01*
X4982Y13999D01*
X5729Y13252D01*
X6644Y12723D01*
X7664Y12450D01*
X8720D01*
X9741Y12723D01*
X10655Y13252D01*
X11402Y13999D01*
X11930Y14913D01*
X12204Y15934D01*
Y16990D01*
X11930Y18010D01*
X11402Y18925D01*
X10655Y19672D01*
X9741Y20200D01*
X8720Y20474D01*
D02*
G37*
G36*
X456044Y17716D02*
X446721D01*
Y8393D01*
X456044D01*
Y17716D01*
D02*
G37*
G36*
X441996D02*
X440769D01*
X439583Y17398D01*
X438520Y16785D01*
X437653Y15917D01*
X437039Y14854D01*
X436721Y13668D01*
Y12441D01*
X437039Y11255D01*
X437653Y10192D01*
X438520Y9324D01*
X439583Y8711D01*
X440769Y8393D01*
X441996D01*
X443182Y8711D01*
X444245Y9324D01*
X445113Y10192D01*
X445726Y11255D01*
X446044Y12441D01*
Y13668D01*
X445726Y14854D01*
X445113Y15917D01*
X444245Y16785D01*
X443182Y17398D01*
X441996Y17716D01*
D02*
G37*
G36*
X431996D02*
X430769D01*
X429583Y17398D01*
X428520Y16785D01*
X427653Y15917D01*
X427039Y14854D01*
X426721Y13668D01*
Y12441D01*
X427039Y11255D01*
X427653Y10192D01*
X428520Y9324D01*
X429583Y8711D01*
X430769Y8393D01*
X431996D01*
X433182Y8711D01*
X434245Y9324D01*
X435113Y10192D01*
X435726Y11255D01*
X436044Y12441D01*
Y13668D01*
X435726Y14854D01*
X435113Y15917D01*
X434245Y16785D01*
X433182Y17398D01*
X431996Y17716D01*
D02*
G37*
G36*
X640645Y17300D02*
X631322D01*
Y7977D01*
X640645D01*
Y17300D01*
D02*
G37*
G36*
X626597D02*
X625370D01*
X624184Y16982D01*
X623121Y16368D01*
X622253Y15500D01*
X621639Y14437D01*
X621322Y13252D01*
Y12025D01*
X621639Y10839D01*
X622253Y9776D01*
X623121Y8908D01*
X624184Y8294D01*
X625370Y7977D01*
X626597D01*
X627782Y8294D01*
X628845Y8908D01*
X629713Y9776D01*
X630327Y10839D01*
X630645Y12025D01*
Y13252D01*
X630327Y14437D01*
X629713Y15500D01*
X628845Y16368D01*
X627782Y16982D01*
X626597Y17300D01*
D02*
G37*
G36*
X616597D02*
X615370D01*
X614184Y16982D01*
X613121Y16368D01*
X612253Y15500D01*
X611639Y14437D01*
X611322Y13252D01*
Y12025D01*
X611639Y10839D01*
X612253Y9776D01*
X613121Y8908D01*
X614184Y8294D01*
X615370Y7977D01*
X616597D01*
X617782Y8294D01*
X618845Y8908D01*
X619713Y9776D01*
X620327Y10839D01*
X620645Y12025D01*
Y13252D01*
X620327Y14437D01*
X619713Y15500D01*
X618845Y16368D01*
X617782Y16982D01*
X616597Y17300D01*
D02*
G37*
G36*
X399224Y12370D02*
X390964D01*
Y4110D01*
X399224D01*
Y12370D01*
D02*
G37*
G36*
X155598Y10776D02*
X154605D01*
X153646Y10519D01*
X152786Y10022D01*
X152083Y9320D01*
X151587Y8460D01*
X151330Y7501D01*
Y6507D01*
X151587Y5548D01*
X152083Y4688D01*
X152786Y3986D01*
X153646Y3489D01*
X154605Y3232D01*
X155598D01*
X156557Y3489D01*
X157417Y3986D01*
X158119Y4688D01*
X158616Y5548D01*
X158873Y6507D01*
Y7501D01*
X158616Y8460D01*
X158119Y9320D01*
X157417Y10022D01*
X156557Y10519D01*
X155598Y10776D01*
D02*
G37*
%LPD*%
D61*
X442810Y360892D02*
D03*
Y340892D02*
D03*
Y320892D02*
D03*
Y300892D02*
D03*
Y280892D02*
D03*
X611197Y260181D02*
D03*
Y280181D02*
D03*
Y300181D02*
D03*
Y320181D02*
D03*
Y340181D02*
D03*
D62*
X442810Y260892D02*
D03*
X611197Y360181D02*
D03*
D63*
X175996Y131522D02*
D03*
X235838D02*
D03*
X108447Y87993D02*
D03*
Y147836D02*
D03*
X155101Y66846D02*
D03*
Y7004D02*
D03*
D64*
X708661Y27559D02*
D03*
X677165Y362205D02*
D03*
X708661Y346457D02*
D03*
D65*
X482073Y13792D02*
D03*
X501758Y23634D02*
D03*
X658758Y5728D02*
D03*
X678443Y15570D02*
D03*
D66*
X482073Y33477D02*
D03*
X658758Y25413D02*
D03*
D67*
X674972Y36170D02*
D03*
X649972D02*
D03*
X586797Y14633D02*
D03*
Y39633D02*
D03*
X406421Y10001D02*
D03*
Y35002D02*
D03*
X469165Y10001D02*
D03*
Y35002D02*
D03*
D68*
X63729Y225846D02*
D03*
Y253405D02*
D03*
D69*
Y280964D02*
D03*
D70*
X34989Y175649D02*
D03*
Y331161D02*
D03*
D71*
X380568Y127779D02*
D03*
X315013Y140926D02*
D03*
X653640Y251467D02*
D03*
X492126Y53150D02*
D03*
X8192Y53598D02*
D03*
X8192Y16462D02*
D03*
D72*
X340561Y140473D02*
D03*
X360561D02*
D03*
X380561D02*
D03*
X651670Y343293D02*
D03*
Y323293D02*
D03*
Y303293D02*
D03*
D73*
X400561Y140473D02*
D03*
D74*
X522795Y12696D02*
D03*
X637174Y39905D02*
D03*
X380497Y8240D02*
D03*
X395094Y38984D02*
D03*
X457426Y41236D02*
D03*
X568953Y55303D02*
D03*
D75*
X522795Y43440D02*
D03*
X380497Y38984D02*
D03*
X395094Y8240D02*
D03*
X568953Y86047D02*
D03*
D76*
X469566Y85641D02*
D03*
X353869D02*
D03*
X294591Y53688D02*
D03*
X207592Y24160D02*
D03*
X711869Y85641D02*
D03*
X653543Y181497D02*
D03*
X598278Y85641D02*
D03*
X454949Y181497D02*
D03*
D77*
X440039Y85641D02*
D03*
X383397D02*
D03*
X682341D02*
D03*
X627806D02*
D03*
D78*
X294591Y24160D02*
D03*
X207592Y53688D02*
D03*
X653543Y151969D02*
D03*
X454949D02*
D03*
D79*
X606429Y39905D02*
D03*
X426682Y41236D02*
D03*
D80*
X607431Y28068D02*
D03*
X636172D02*
D03*
X427071Y28410D02*
D03*
X455812D02*
D03*
D81*
X615983Y12638D02*
D03*
X625983D02*
D03*
X431383Y13055D02*
D03*
X441383D02*
D03*
D82*
X635983Y12638D02*
D03*
X451383Y13055D02*
D03*
D83*
X129406Y91005D02*
D03*
X129326Y59537D02*
D03*
X123216Y40044D02*
D03*
Y9396D02*
D03*
X654651Y47069D02*
D03*
X415424Y61596D02*
D03*
D84*
X129406Y83131D02*
D03*
X129326Y67411D02*
D03*
X123216Y32170D02*
D03*
Y17270D02*
D03*
X654651Y54943D02*
D03*
D85*
X171998Y349957D02*
D03*
Y174957D02*
D03*
X390698D02*
D03*
Y349957D02*
D03*
D86*
X212598Y178457D02*
D03*
X267598D02*
D03*
X212598Y346457D02*
D03*
X295098D02*
D03*
X267598D02*
D03*
X295098Y178457D02*
D03*
X350098D02*
D03*
D87*
Y346457D02*
D03*
D88*
X651670Y283293D02*
D03*
D89*
X92054Y92263D02*
D03*
X6070D02*
D03*
D90*
X407550Y61596D02*
D03*
D91*
X6837Y143940D02*
D03*
Y123940D02*
D03*
X86838Y133940D02*
D03*
X71838D02*
D03*
D92*
X56837D02*
D03*
D93*
X19604Y362205D02*
D03*
D94*
X155048Y104094D02*
D03*
D95*
Y94094D02*
D03*
X160291Y131416D02*
D03*
D96*
X150291D02*
D03*
D97*
X23574Y23822D02*
D03*
X94440D02*
D03*
D98*
X76724Y29531D02*
D03*
X64913D02*
D03*
X53102D02*
D03*
X41291D02*
D03*
X76724Y41342D02*
D03*
X64913D02*
D03*
X53102D02*
D03*
D99*
X41291D02*
D03*
D100*
X114278Y195776D02*
D03*
D101*
Y225776D02*
D03*
Y255776D02*
D03*
Y295776D02*
D03*
Y325776D02*
D03*
D102*
X127378Y146460D02*
D03*
Y126775D02*
D03*
M02*
