G04*
G04 #@! TF.GenerationSoftware,Altium Limited,Altium Designer,23.3.1 (30)*
G04*
G04 Layer_Color=255*
%FSLAX25Y25*%
%MOIN*%
G70*
G04*
G04 #@! TF.SameCoordinates,06538215-238A-4A1E-A02E-8B45A58771C4*
G04*
G04*
G04 #@! TF.FilePolarity,Positive*
G04*
G01*
G75*
%ADD154C,0.05543*%
%ADD155O,0.10748X0.04842*%
%ADD156R,0.05543X0.05543*%
%ADD157O,0.04842X0.10748*%
%ADD158C,0.05937*%
%ADD159R,0.05937X0.05937*%
%ADD160O,0.32409X0.16205*%
%ADD161C,0.06000*%
%ADD162R,0.06000X0.06000*%
%ADD163C,0.24410*%
%ADD164C,0.27559*%
%ADD165C,0.06496*%
%ADD166R,0.06496X0.06496*%
%ADD167R,0.06024X0.06024*%
%ADD168C,0.06024*%
%ADD169C,0.13055*%
%ADD170C,0.05622*%
%ADD171R,0.05622X0.05622*%
%ADD172C,0.04953*%
%ADD173R,0.04953X0.04953*%
%ADD174O,0.08661X0.17323*%
%ADD175R,0.04953X0.04953*%
%ADD176C,0.06299*%
%ADD177R,0.06299X0.06299*%
%ADD178C,0.06181*%
%ADD179C,0.05925*%
%ADD180R,0.05925X0.05925*%
%ADD181O,0.07480X0.14961*%
%ADD182O,0.14961X0.07480*%
%ADD183R,0.06299X0.06299*%
%ADD184R,0.05937X0.05937*%
D154*
X47638Y577165D02*
D03*
Y567323D02*
D03*
Y550394D02*
D03*
X37795Y577165D02*
D03*
X47638Y558661D02*
D03*
X37795Y568898D02*
D03*
Y550394D02*
D03*
D155*
X25984Y537205D02*
D03*
Y590354D02*
D03*
D156*
X37795Y558661D02*
D03*
D157*
X22835Y563780D02*
D03*
D158*
X31590Y349356D02*
D03*
Y338450D02*
D03*
Y327545D02*
D03*
Y316639D02*
D03*
Y305734D02*
D03*
Y294828D02*
D03*
Y283923D02*
D03*
Y273017D02*
D03*
Y262112D02*
D03*
Y251206D02*
D03*
Y240301D02*
D03*
Y229395D02*
D03*
X43145Y354691D02*
D03*
Y343785D02*
D03*
Y332880D02*
D03*
Y321974D02*
D03*
Y311069D02*
D03*
Y300163D02*
D03*
Y289257D02*
D03*
Y278352D02*
D03*
Y267446D02*
D03*
Y256541D02*
D03*
Y245635D02*
D03*
Y234730D02*
D03*
X449206Y501848D02*
D03*
X459206D02*
D03*
X469206D02*
D03*
X479206D02*
D03*
X489206D02*
D03*
X499206D02*
D03*
X509206D02*
D03*
X519206D02*
D03*
X459206Y451848D02*
D03*
X469206D02*
D03*
X479206D02*
D03*
X489206D02*
D03*
X499206D02*
D03*
X509206D02*
D03*
X519206D02*
D03*
Y491848D02*
D03*
Y481848D02*
D03*
D159*
X43145Y223824D02*
D03*
D160*
X37200Y382486D02*
D03*
Y197289D02*
D03*
D161*
X429848Y35667D02*
D03*
X419848D02*
D03*
X429848Y45667D02*
D03*
X419848D02*
D03*
X405833Y11561D02*
D03*
X395833D02*
D03*
X385833D02*
D03*
X375833D02*
D03*
X365833D02*
D03*
X355833D02*
D03*
X405833Y21561D02*
D03*
X395833D02*
D03*
X385833D02*
D03*
X375833D02*
D03*
X365833D02*
D03*
X355833D02*
D03*
X345833Y11561D02*
D03*
Y21561D02*
D03*
X335833Y11561D02*
D03*
X325833D02*
D03*
X315833D02*
D03*
X305833D02*
D03*
X295833D02*
D03*
X285833D02*
D03*
X335833Y21561D02*
D03*
X325833D02*
D03*
X315833D02*
D03*
X305833D02*
D03*
X295833D02*
D03*
X285833D02*
D03*
X275833Y11561D02*
D03*
Y21561D02*
D03*
X265833Y11561D02*
D03*
X255833D02*
D03*
X245833D02*
D03*
X235833D02*
D03*
X225833D02*
D03*
X215833D02*
D03*
X265833Y21561D02*
D03*
X255833D02*
D03*
X245833D02*
D03*
X235833D02*
D03*
X225833D02*
D03*
X62977Y185316D02*
D03*
Y235316D02*
D03*
Y245316D02*
D03*
Y195316D02*
D03*
Y205316D02*
D03*
Y215316D02*
D03*
Y225316D02*
D03*
Y255316D02*
D03*
Y265316D02*
D03*
Y275316D02*
D03*
X76075Y296202D02*
D03*
Y346202D02*
D03*
Y356202D02*
D03*
Y306202D02*
D03*
Y316202D02*
D03*
Y326202D02*
D03*
Y336202D02*
D03*
Y366202D02*
D03*
Y376202D02*
D03*
Y386202D02*
D03*
X63003Y296202D02*
D03*
Y346202D02*
D03*
Y356202D02*
D03*
Y306202D02*
D03*
Y316202D02*
D03*
Y326202D02*
D03*
Y336202D02*
D03*
Y366202D02*
D03*
Y376202D02*
D03*
Y386202D02*
D03*
X76533Y185423D02*
D03*
Y235423D02*
D03*
Y245423D02*
D03*
Y195423D02*
D03*
Y205423D02*
D03*
Y215423D02*
D03*
Y225423D02*
D03*
Y255423D02*
D03*
Y265423D02*
D03*
Y275423D02*
D03*
D162*
X215833Y21561D02*
D03*
D163*
X196659Y16561D02*
D03*
X425006D02*
D03*
Y209474D02*
D03*
X196659D02*
D03*
D164*
X650000Y25000D02*
D03*
Y645000D02*
D03*
X130000D02*
D03*
X40000Y25000D02*
D03*
D165*
X148689Y8588D02*
D03*
X131056Y8404D02*
D03*
X271308Y250842D02*
D03*
X293307Y308780D02*
D03*
D166*
X148689Y18588D02*
D03*
X131056Y18404D02*
D03*
X271308Y260842D02*
D03*
X293307Y318780D02*
D03*
D167*
X109836Y9978D02*
D03*
X262998Y623901D02*
D03*
X413696Y391277D02*
D03*
D168*
X99836Y9978D02*
D03*
X109836Y19978D02*
D03*
X99836D02*
D03*
X109836Y29978D02*
D03*
X99836D02*
D03*
X252998Y643901D02*
D03*
X262998D02*
D03*
X252998Y633901D02*
D03*
X262998D02*
D03*
X252998Y623901D02*
D03*
X423696Y391277D02*
D03*
X413696Y381277D02*
D03*
X423696D02*
D03*
X413696Y371277D02*
D03*
X423696D02*
D03*
D169*
X41929Y609370D02*
D03*
Y656772D02*
D03*
X42599Y472680D02*
D03*
Y524412D02*
D03*
X64961Y472680D02*
D03*
Y524412D02*
D03*
X42285Y404152D02*
D03*
Y455885D02*
D03*
X64647Y404152D02*
D03*
Y455885D02*
D03*
X207912Y400836D02*
D03*
Y452568D02*
D03*
D170*
X52598Y627992D02*
D03*
Y637835D02*
D03*
X60472D02*
D03*
X53268Y484767D02*
D03*
Y494609D02*
D03*
Y502483D02*
D03*
X63583Y484767D02*
D03*
Y494609D02*
D03*
Y502483D02*
D03*
X52954Y416239D02*
D03*
Y426082D02*
D03*
Y433956D02*
D03*
X63269Y416239D02*
D03*
Y426082D02*
D03*
Y433956D02*
D03*
X197243Y422765D02*
D03*
Y430639D02*
D03*
Y440482D02*
D03*
D171*
X60472Y627992D02*
D03*
X53268Y512326D02*
D03*
X63583D02*
D03*
X52954Y443798D02*
D03*
X63269D02*
D03*
X197243Y412923D02*
D03*
D172*
X447238Y521165D02*
D03*
X437238D02*
D03*
X427238D02*
D03*
X417238D02*
D03*
X407238D02*
D03*
X397238D02*
D03*
X387238D02*
D03*
X447293Y539347D02*
D03*
X437293D02*
D03*
X427293D02*
D03*
X417293D02*
D03*
X407293D02*
D03*
X397293D02*
D03*
X387293D02*
D03*
X203752Y282442D02*
D03*
Y292442D02*
D03*
Y302442D02*
D03*
Y312442D02*
D03*
Y322442D02*
D03*
Y332442D02*
D03*
Y342442D02*
D03*
X494607Y352619D02*
D03*
Y342619D02*
D03*
Y332619D02*
D03*
Y322619D02*
D03*
Y312619D02*
D03*
Y302619D02*
D03*
Y292619D02*
D03*
X463866Y521165D02*
D03*
X473866D02*
D03*
X483866D02*
D03*
X493866D02*
D03*
X503866D02*
D03*
X513866D02*
D03*
X523866D02*
D03*
X381838Y254055D02*
D03*
X371838D02*
D03*
X361838D02*
D03*
X351838D02*
D03*
X341838D02*
D03*
X331838D02*
D03*
X321838D02*
D03*
X381838Y390551D02*
D03*
X371838D02*
D03*
X361838D02*
D03*
X351838D02*
D03*
X341838D02*
D03*
X331838D02*
D03*
X321838D02*
D03*
D173*
X377238Y521165D02*
D03*
X377293Y539347D02*
D03*
X533866Y521165D02*
D03*
X391838Y254055D02*
D03*
Y390551D02*
D03*
D174*
X614919Y466032D02*
D03*
D175*
X203752Y352442D02*
D03*
X494607Y282619D02*
D03*
D176*
X479907Y633189D02*
D03*
X489907D02*
D03*
X499907D02*
D03*
X365755D02*
D03*
X375755D02*
D03*
X385755D02*
D03*
X587837Y399091D02*
D03*
Y389091D02*
D03*
Y379091D02*
D03*
X360647Y455306D02*
D03*
Y465306D02*
D03*
Y475306D02*
D03*
X518813Y431926D02*
D03*
X508813D02*
D03*
X498813D02*
D03*
D177*
X469907Y633189D02*
D03*
X355755D02*
D03*
X488813Y431926D02*
D03*
D178*
X649735Y502918D02*
D03*
Y573784D02*
D03*
D179*
X644026Y556068D02*
D03*
Y544257D02*
D03*
Y532446D02*
D03*
Y520635D02*
D03*
X632215Y556068D02*
D03*
Y544257D02*
D03*
Y532446D02*
D03*
D180*
Y520635D02*
D03*
D181*
X638364Y466032D02*
D03*
D182*
X625569Y484497D02*
D03*
D183*
X587837Y369091D02*
D03*
X360647Y485306D02*
D03*
D184*
X449206Y451848D02*
D03*
M02*
