G04*
G04 #@! TF.GenerationSoftware,Altium Limited,Altium Designer,23.3.1 (30)*
G04*
G04 Layer_Color=8388736*
%FSLAX25Y25*%
%MOIN*%
G70*
G04*
G04 #@! TF.SameCoordinates,06538215-238A-4A1E-A02E-8B45A58771C4*
G04*
G04*
G04 #@! TF.FilePolarity,Negative*
G04*
G01*
G75*
%ADD65C,0.03263*%
%ADD66R,0.04461X0.04225*%
%ADD67R,0.05524X0.05524*%
%ADD68R,0.04737X0.05131*%
G04:AMPARAMS|DCode=69|XSize=46.19mil|YSize=28.87mil|CornerRadius=6.61mil|HoleSize=0mil|Usage=FLASHONLY|Rotation=0.000|XOffset=0mil|YOffset=0mil|HoleType=Round|Shape=RoundedRectangle|*
%AMROUNDEDRECTD69*
21,1,0.04619,0.01565,0,0,0.0*
21,1,0.03297,0.02887,0,0,0.0*
1,1,0.01322,0.01649,-0.00783*
1,1,0.01322,-0.01649,-0.00783*
1,1,0.01322,-0.01649,0.00783*
1,1,0.01322,0.01649,0.00783*
%
%ADD69ROUNDEDRECTD69*%
G04:AMPARAMS|DCode=70|XSize=51.31mil|YSize=18.24mil|CornerRadius=5.28mil|HoleSize=0mil|Usage=FLASHONLY|Rotation=90.000|XOffset=0mil|YOffset=0mil|HoleType=Round|Shape=RoundedRectangle|*
%AMROUNDEDRECTD70*
21,1,0.05131,0.00768,0,0,90.0*
21,1,0.04075,0.01824,0,0,90.0*
1,1,0.01056,0.00384,0.02037*
1,1,0.01056,0.00384,-0.02037*
1,1,0.01056,-0.00384,-0.02037*
1,1,0.01056,-0.00384,0.02037*
%
%ADD70ROUNDEDRECTD70*%
%ADD71R,0.02454X0.02020*%
%ADD72R,0.02493X0.02020*%
G04:AMPARAMS|DCode=73|XSize=51.31mil|YSize=18.24mil|CornerRadius=5.28mil|HoleSize=0mil|Usage=FLASHONLY|Rotation=0.000|XOffset=0mil|YOffset=0mil|HoleType=Round|Shape=RoundedRectangle|*
%AMROUNDEDRECTD73*
21,1,0.05131,0.00768,0,0,0.0*
21,1,0.04075,0.01824,0,0,0.0*
1,1,0.01056,0.02037,-0.00384*
1,1,0.01056,-0.02037,-0.00384*
1,1,0.01056,-0.02037,0.00384*
1,1,0.01056,0.02037,0.00384*
%
%ADD73ROUNDEDRECTD73*%
%ADD74R,0.15367X0.15367*%
G04:AMPARAMS|DCode=75|XSize=46.19mil|YSize=28.87mil|CornerRadius=6.61mil|HoleSize=0mil|Usage=FLASHONLY|Rotation=270.000|XOffset=0mil|YOffset=0mil|HoleType=Round|Shape=RoundedRectangle|*
%AMROUNDEDRECTD75*
21,1,0.04619,0.01565,0,0,270.0*
21,1,0.03297,0.02887,0,0,270.0*
1,1,0.01322,-0.00783,-0.01649*
1,1,0.01322,-0.00783,0.01649*
1,1,0.01322,0.00783,0.01649*
1,1,0.01322,0.00783,-0.01649*
%
%ADD75ROUNDEDRECTD75*%
%ADD76R,0.06706X0.04737*%
%ADD77R,0.06706X0.13398*%
G04:AMPARAMS|DCode=78|XSize=42.25mil|YSize=48.16mil|CornerRadius=8.28mil|HoleSize=0mil|Usage=FLASHONLY|Rotation=270.000|XOffset=0mil|YOffset=0mil|HoleType=Round|Shape=RoundedRectangle|*
%AMROUNDEDRECTD78*
21,1,0.04225,0.03159,0,0,270.0*
21,1,0.02569,0.04816,0,0,270.0*
1,1,0.01656,-0.01580,-0.01284*
1,1,0.01656,-0.01580,0.01284*
1,1,0.01656,0.01580,0.01284*
1,1,0.01656,0.01580,-0.01284*
%
%ADD78ROUNDEDRECTD78*%
%ADD79R,0.09068X0.06312*%
%ADD80R,0.01900X0.06600*%
%ADD81R,0.06600X0.01900*%
%ADD82R,0.02769X0.09461*%
G04:AMPARAMS|DCode=83|XSize=98.16mil|YSize=91.47mil|CornerRadius=14.43mil|HoleSize=0mil|Usage=FLASHONLY|Rotation=270.000|XOffset=0mil|YOffset=0mil|HoleType=Round|Shape=RoundedRectangle|*
%AMROUNDEDRECTD83*
21,1,0.09816,0.06260,0,0,270.0*
21,1,0.06929,0.09147,0,0,270.0*
1,1,0.02887,-0.03130,-0.03465*
1,1,0.02887,-0.03130,0.03465*
1,1,0.02887,0.03130,0.03465*
1,1,0.02887,0.03130,-0.03465*
%
%ADD83ROUNDEDRECTD83*%
G04:AMPARAMS|DCode=84|XSize=98.16mil|YSize=91.47mil|CornerRadius=14.43mil|HoleSize=0mil|Usage=FLASHONLY|Rotation=0.000|XOffset=0mil|YOffset=0mil|HoleType=Round|Shape=RoundedRectangle|*
%AMROUNDEDRECTD84*
21,1,0.09816,0.06260,0,0,0.0*
21,1,0.06929,0.09147,0,0,0.0*
1,1,0.02887,0.03465,-0.03130*
1,1,0.02887,-0.03465,-0.03130*
1,1,0.02887,-0.03465,0.03130*
1,1,0.02887,0.03465,0.03130*
%
%ADD84ROUNDEDRECTD84*%
%ADD85R,0.11784X0.04934*%
%ADD86R,0.27729X0.42454*%
%ADD87R,0.05131X0.04737*%
G04:AMPARAMS|DCode=88|XSize=55.64mil|YSize=31.23mil|CornerRadius=9.81mil|HoleSize=0mil|Usage=FLASHONLY|Rotation=0.000|XOffset=0mil|YOffset=0mil|HoleType=Round|Shape=RoundedRectangle|*
%AMROUNDEDRECTD88*
21,1,0.05564,0.01161,0,0,0.0*
21,1,0.03602,0.03123,0,0,0.0*
1,1,0.01961,0.01801,-0.00581*
1,1,0.01961,-0.01801,-0.00581*
1,1,0.01961,-0.01801,0.00581*
1,1,0.01961,0.01801,0.00581*
%
%ADD88ROUNDEDRECTD88*%
%ADD89R,0.04225X0.04461*%
G04:AMPARAMS|DCode=90|XSize=55.64mil|YSize=30.84mil|CornerRadius=6.85mil|HoleSize=0mil|Usage=FLASHONLY|Rotation=90.000|XOffset=0mil|YOffset=0mil|HoleType=Round|Shape=RoundedRectangle|*
%AMROUNDEDRECTD90*
21,1,0.05564,0.01713,0,0,90.0*
21,1,0.04193,0.03084,0,0,90.0*
1,1,0.01371,0.00856,0.02097*
1,1,0.01371,0.00856,-0.02097*
1,1,0.01371,-0.00856,-0.02097*
1,1,0.01371,-0.00856,0.02097*
%
%ADD90ROUNDEDRECTD90*%
%ADD91R,0.03950X0.04343*%
%ADD92R,0.04343X0.03950*%
%ADD93R,0.22453X0.08674*%
%ADD94R,0.05524X0.06587*%
%ADD95R,0.09461X0.06902*%
G04:AMPARAMS|DCode=96|XSize=89.1mil|YSize=31.62mil|CornerRadius=6.95mil|HoleSize=0mil|Usage=FLASHONLY|Rotation=0.000|XOffset=0mil|YOffset=0mil|HoleType=Round|Shape=RoundedRectangle|*
%AMROUNDEDRECTD96*
21,1,0.08910,0.01772,0,0,0.0*
21,1,0.07520,0.03162,0,0,0.0*
1,1,0.01391,0.03760,-0.00886*
1,1,0.01391,-0.03760,-0.00886*
1,1,0.01391,-0.03760,0.00886*
1,1,0.01391,0.03760,0.00886*
%
%ADD96ROUNDEDRECTD96*%
%ADD97R,0.02375X0.08280*%
G04:AMPARAMS|DCode=98|XSize=69.81mil|YSize=24.14mil|CornerRadius=6.02mil|HoleSize=0mil|Usage=FLASHONLY|Rotation=0.000|XOffset=0mil|YOffset=0mil|HoleType=Round|Shape=RoundedRectangle|*
%AMROUNDEDRECTD98*
21,1,0.06981,0.01211,0,0,0.0*
21,1,0.05778,0.02414,0,0,0.0*
1,1,0.01204,0.02889,-0.00605*
1,1,0.01204,-0.02889,-0.00605*
1,1,0.01204,-0.02889,0.00605*
1,1,0.01204,0.02889,0.00605*
%
%ADD98ROUNDEDRECTD98*%
%ADD99R,0.13871X0.05564*%
%ADD100R,0.11627X0.25210*%
G04:AMPARAMS|DCode=101|XSize=69.42mil|YSize=23.75mil|CornerRadius=5.97mil|HoleSize=0mil|Usage=FLASHONLY|Rotation=0.000|XOffset=0mil|YOffset=0mil|HoleType=Round|Shape=RoundedRectangle|*
%AMROUNDEDRECTD101*
21,1,0.06942,0.01181,0,0,0.0*
21,1,0.05748,0.02375,0,0,0.0*
1,1,0.01194,0.02874,-0.00591*
1,1,0.01194,-0.02874,-0.00591*
1,1,0.01194,-0.02874,0.00591*
1,1,0.01194,0.02874,0.00591*
%
%ADD101ROUNDEDRECTD101*%
%ADD102R,0.07099X0.13398*%
%ADD103R,0.22847X0.09068*%
%ADD104R,0.05288X0.06587*%
%ADD105R,0.10406X0.05249*%
%ADD106R,0.04422X0.04619*%
G04:AMPARAMS|DCode=107|XSize=63.91mil|YSize=26.5mil|CornerRadius=6.31mil|HoleSize=0mil|Usage=FLASHONLY|Rotation=180.000|XOffset=0mil|YOffset=0mil|HoleType=Round|Shape=RoundedRectangle|*
%AMROUNDEDRECTD107*
21,1,0.06391,0.01388,0,0,180.0*
21,1,0.05128,0.02650,0,0,180.0*
1,1,0.01263,-0.02564,0.00694*
1,1,0.01263,0.02564,0.00694*
1,1,0.01263,0.02564,-0.00694*
1,1,0.01263,-0.02564,-0.00694*
%
%ADD107ROUNDEDRECTD107*%
G04:AMPARAMS|DCode=108|XSize=32.02mil|YSize=63.51mil|CornerRadius=10mil|HoleSize=0mil|Usage=FLASHONLY|Rotation=270.000|XOffset=0mil|YOffset=0mil|HoleType=Round|Shape=RoundedRectangle|*
%AMROUNDEDRECTD108*
21,1,0.03202,0.04350,0,0,270.0*
21,1,0.01201,0.06351,0,0,270.0*
1,1,0.02001,-0.02175,-0.00600*
1,1,0.02001,-0.02175,0.00600*
1,1,0.02001,0.02175,0.00600*
1,1,0.02001,0.02175,-0.00600*
%
%ADD108ROUNDEDRECTD108*%
G04:AMPARAMS|DCode=109|XSize=52.09mil|YSize=18.63mil|CornerRadius=5.33mil|HoleSize=0mil|Usage=FLASHONLY|Rotation=90.000|XOffset=0mil|YOffset=0mil|HoleType=Round|Shape=RoundedRectangle|*
%AMROUNDEDRECTD109*
21,1,0.05209,0.00797,0,0,90.0*
21,1,0.04144,0.01863,0,0,90.0*
1,1,0.01066,0.00399,0.02072*
1,1,0.01066,0.00399,-0.02072*
1,1,0.01066,-0.00399,-0.02072*
1,1,0.01066,-0.00399,0.02072*
%
%ADD109ROUNDEDRECTD109*%
G04:AMPARAMS|DCode=110|XSize=66.66mil|YSize=29.65mil|CornerRadius=6.71mil|HoleSize=0mil|Usage=FLASHONLY|Rotation=180.000|XOffset=0mil|YOffset=0mil|HoleType=Round|Shape=RoundedRectangle|*
%AMROUNDEDRECTD110*
21,1,0.06666,0.01624,0,0,180.0*
21,1,0.05325,0.02965,0,0,180.0*
1,1,0.01341,-0.02662,0.00812*
1,1,0.01341,0.02662,0.00812*
1,1,0.01341,0.02662,-0.00812*
1,1,0.01341,-0.02662,-0.00812*
%
%ADD110ROUNDEDRECTD110*%
G04:AMPARAMS|DCode=111|XSize=66.66mil|YSize=29.65mil|CornerRadius=6.71mil|HoleSize=0mil|Usage=FLASHONLY|Rotation=90.000|XOffset=0mil|YOffset=0mil|HoleType=Round|Shape=RoundedRectangle|*
%AMROUNDEDRECTD111*
21,1,0.06666,0.01624,0,0,90.0*
21,1,0.05325,0.02965,0,0,90.0*
1,1,0.01341,0.00812,0.02662*
1,1,0.01341,0.00812,-0.02662*
1,1,0.01341,-0.00812,-0.02662*
1,1,0.01341,-0.00812,0.02662*
%
%ADD111ROUNDEDRECTD111*%
%ADD112C,0.06343*%
%ADD113O,0.11548X0.05642*%
%ADD114R,0.06343X0.06343*%
%ADD115O,0.05642X0.11548*%
%ADD116C,0.06737*%
%ADD117R,0.06737X0.06737*%
%ADD118O,0.33209X0.17005*%
%ADD119C,0.06800*%
%ADD120R,0.06800X0.06800*%
%ADD121C,0.25210*%
%ADD122C,0.28359*%
%ADD123C,0.07296*%
%ADD124R,0.07296X0.07296*%
%ADD125R,0.06824X0.06824*%
%ADD126C,0.06824*%
%ADD127C,0.13855*%
%ADD128C,0.06422*%
%ADD129R,0.06422X0.06422*%
%ADD130C,0.05753*%
%ADD131R,0.05753X0.05753*%
%ADD132O,0.09461X0.18123*%
%ADD133R,0.05753X0.05753*%
%ADD134C,0.07099*%
%ADD135R,0.07099X0.07099*%
%ADD136C,0.06781*%
%ADD137C,0.06525*%
%ADD138R,0.06525X0.06525*%
%ADD139O,0.08280X0.15761*%
%ADD140O,0.15761X0.08280*%
%ADD141R,0.07099X0.07099*%
%ADD142R,0.06737X0.06737*%
%ADD143C,0.02800*%
%ADD144C,0.03200*%
D65*
X645657Y556068D02*
X645346Y557027D01*
X644530Y557619D01*
X643522D01*
X642706Y557027D01*
X642395Y556068D01*
X642706Y555109D01*
X643522Y554516D01*
X644530D01*
X645346Y555109D01*
X645657Y556068D01*
Y544257D02*
X645346Y545216D01*
X644530Y545808D01*
X643522D01*
X642706Y545216D01*
X642395Y544257D01*
X642706Y543298D01*
X643522Y542705D01*
X644530D01*
X645346Y543298D01*
X645657Y544257D01*
Y532446D02*
X645346Y533405D01*
X644530Y533997D01*
X643522D01*
X642706Y533405D01*
X642395Y532446D01*
X642706Y531487D01*
X643522Y530894D01*
X644530D01*
X645346Y531487D01*
X645657Y532446D01*
Y520635D02*
X645346Y521594D01*
X644530Y522186D01*
X643522D01*
X642706Y521594D01*
X642395Y520635D01*
X642706Y519676D01*
X643522Y519083D01*
X644530D01*
X645346Y519676D01*
X645657Y520635D01*
X633846Y556068D02*
X633535Y557027D01*
X632719Y557619D01*
X631711D01*
X630895Y557027D01*
X630584Y556068D01*
X630895Y555109D01*
X631711Y554516D01*
X632719D01*
X633535Y555109D01*
X633846Y556068D01*
Y544257D02*
X633535Y545216D01*
X632719Y545808D01*
X631711D01*
X630895Y545216D01*
X630584Y544257D01*
X630895Y543298D01*
X631711Y542705D01*
X632719D01*
X633535Y543298D01*
X633846Y544257D01*
Y532446D02*
X633535Y533405D01*
X632719Y533997D01*
X631711D01*
X630895Y533405D01*
X630584Y532446D01*
X630895Y531487D01*
X631711Y530894D01*
X632719D01*
X633535Y531487D01*
X633846Y532446D01*
D66*
X387258Y443171D02*
D03*
Y437029D02*
D03*
X402043Y197458D02*
D03*
Y191316D02*
D03*
X391840Y197458D02*
D03*
Y191316D02*
D03*
X381960Y197458D02*
D03*
Y191316D02*
D03*
X371757Y197458D02*
D03*
Y191316D02*
D03*
X355594Y29417D02*
D03*
Y35558D02*
D03*
X322480Y197458D02*
D03*
Y191316D02*
D03*
X316478Y204891D02*
D03*
Y211033D02*
D03*
X296624Y204891D02*
D03*
Y211033D02*
D03*
X266601D02*
D03*
Y204891D02*
D03*
X251871Y211033D02*
D03*
Y204891D02*
D03*
X301820Y197458D02*
D03*
Y191316D02*
D03*
X291850D02*
D03*
Y197458D02*
D03*
X282400Y191316D02*
D03*
Y197458D02*
D03*
X271239D02*
D03*
Y191316D02*
D03*
X261939D02*
D03*
Y197458D02*
D03*
X159428Y17997D02*
D03*
Y24139D02*
D03*
X231805Y197458D02*
D03*
Y191316D02*
D03*
X356905Y211033D02*
D03*
Y204891D02*
D03*
X375761D02*
D03*
Y211033D02*
D03*
X396619D02*
D03*
Y204891D02*
D03*
X107924Y485870D02*
D03*
Y479728D02*
D03*
X116929Y534822D02*
D03*
Y540964D02*
D03*
X534344Y568910D02*
D03*
Y575052D02*
D03*
X394100Y320371D02*
D03*
Y314229D02*
D03*
X416942Y575052D02*
D03*
Y568910D02*
D03*
X124589Y540964D02*
D03*
Y534822D02*
D03*
X295270Y255843D02*
D03*
Y249701D02*
D03*
D67*
X144555Y31281D02*
D03*
X152823D02*
D03*
X144555Y38779D02*
D03*
X152823D02*
D03*
X279324Y630168D02*
D03*
X287592D02*
D03*
X175044Y525984D02*
D03*
X183311D02*
D03*
X175044Y513704D02*
D03*
X183311D02*
D03*
X140896Y504629D02*
D03*
X132629D02*
D03*
D68*
X109305Y188935D02*
D03*
Y182242D02*
D03*
X185827Y581690D02*
D03*
Y574997D02*
D03*
X116837Y554776D02*
D03*
Y548083D02*
D03*
X185409Y622173D02*
D03*
Y628866D02*
D03*
X394978Y504815D02*
D03*
Y498122D02*
D03*
X395400Y436754D02*
D03*
Y443446D02*
D03*
X109305Y243149D02*
D03*
Y236456D02*
D03*
X166234Y330295D02*
D03*
Y336987D02*
D03*
Y383859D02*
D03*
Y390552D02*
D03*
X349576Y442159D02*
D03*
Y435466D02*
D03*
X151340Y433655D02*
D03*
Y426962D02*
D03*
X143314Y433655D02*
D03*
Y426962D02*
D03*
X511417Y590388D02*
D03*
Y597081D02*
D03*
X399634Y590388D02*
D03*
Y597081D02*
D03*
X342665Y590244D02*
D03*
Y596937D02*
D03*
X499908Y643911D02*
D03*
Y650604D02*
D03*
X490098Y643911D02*
D03*
Y650604D02*
D03*
X479862Y643911D02*
D03*
Y650604D02*
D03*
X470024Y643911D02*
D03*
Y650604D02*
D03*
X385560Y643911D02*
D03*
Y650604D02*
D03*
X375725Y643911D02*
D03*
Y650604D02*
D03*
X365831Y643911D02*
D03*
Y650604D02*
D03*
X355875Y643911D02*
D03*
Y650604D02*
D03*
X495033Y600563D02*
D03*
Y607256D02*
D03*
X474306Y600563D02*
D03*
Y607256D02*
D03*
X488029Y600563D02*
D03*
Y607256D02*
D03*
X481191Y600563D02*
D03*
Y607256D02*
D03*
X448619Y577209D02*
D03*
Y570516D02*
D03*
X456358Y577209D02*
D03*
Y570516D02*
D03*
X325604Y576924D02*
D03*
Y570231D02*
D03*
X380681Y607256D02*
D03*
Y600563D02*
D03*
X373485Y607256D02*
D03*
Y600563D02*
D03*
X366203Y607256D02*
D03*
Y600563D02*
D03*
X358854Y607256D02*
D03*
Y600563D02*
D03*
X332933Y570276D02*
D03*
Y576969D02*
D03*
X234970Y606447D02*
D03*
Y613140D02*
D03*
X136998Y576495D02*
D03*
Y569803D02*
D03*
X124589Y548083D02*
D03*
Y554776D02*
D03*
X627469Y593441D02*
D03*
Y586749D02*
D03*
X618414Y593441D02*
D03*
Y586749D02*
D03*
X609774Y593441D02*
D03*
Y586749D02*
D03*
X601785Y593442D02*
D03*
Y586749D02*
D03*
X78208Y606598D02*
D03*
Y613291D02*
D03*
X457101Y597081D02*
D03*
Y590388D02*
D03*
X106693Y512456D02*
D03*
Y519149D02*
D03*
D69*
X143374Y476659D02*
D03*
X70965Y639764D02*
D03*
Y642913D02*
D03*
Y646063D02*
D03*
Y649213D02*
D03*
X77854D02*
D03*
Y646063D02*
D03*
Y642913D02*
D03*
Y639764D02*
D03*
X150263Y476659D02*
D03*
Y473509D02*
D03*
Y470360D02*
D03*
Y467210D02*
D03*
X143374D02*
D03*
Y470360D02*
D03*
Y473509D02*
D03*
X150263Y452110D02*
D03*
Y448960D02*
D03*
Y445810D02*
D03*
Y442661D02*
D03*
X143374D02*
D03*
Y445810D02*
D03*
Y448960D02*
D03*
Y452110D02*
D03*
X286903Y622551D02*
D03*
Y619402D02*
D03*
Y616252D02*
D03*
Y613102D02*
D03*
X280013D02*
D03*
Y616252D02*
D03*
Y619402D02*
D03*
Y622551D02*
D03*
X165455Y598425D02*
D03*
Y595275D02*
D03*
Y592125D02*
D03*
Y588976D02*
D03*
X172345D02*
D03*
Y592125D02*
D03*
Y595275D02*
D03*
Y598425D02*
D03*
D70*
X121457Y473203D02*
D03*
X123425D02*
D03*
X111614D02*
D03*
X113583D02*
D03*
X115551D02*
D03*
X117520D02*
D03*
X119488D02*
D03*
X125394D02*
D03*
X127362D02*
D03*
Y451037D02*
D03*
X125394D02*
D03*
X123425D02*
D03*
X121457D02*
D03*
X119488D02*
D03*
X117520D02*
D03*
X115551D02*
D03*
X113583D02*
D03*
X111614D02*
D03*
D71*
X166253Y468229D02*
D03*
Y472166D02*
D03*
X168576D02*
D03*
X166253Y470198D02*
D03*
X168576D02*
D03*
D72*
X168556Y468229D02*
D03*
D73*
X108406Y468026D02*
D03*
Y469994D02*
D03*
X130571D02*
D03*
Y468026D02*
D03*
Y466057D02*
D03*
Y464089D02*
D03*
Y462120D02*
D03*
Y460152D02*
D03*
Y458183D02*
D03*
Y456215D02*
D03*
Y454246D02*
D03*
X108406D02*
D03*
Y456215D02*
D03*
Y458183D02*
D03*
Y460152D02*
D03*
Y462120D02*
D03*
Y464089D02*
D03*
Y466057D02*
D03*
D74*
X119488Y462120D02*
D03*
D75*
X113007Y436982D02*
D03*
X116157D02*
D03*
X119307D02*
D03*
X122456D02*
D03*
Y430093D02*
D03*
X119307D02*
D03*
X116157D02*
D03*
X113007D02*
D03*
X279959Y583632D02*
D03*
X276809D02*
D03*
X273660D02*
D03*
X270510D02*
D03*
Y590522D02*
D03*
X273660D02*
D03*
X276809D02*
D03*
X279959D02*
D03*
D76*
X153659Y599610D02*
D03*
Y587011D02*
D03*
D77*
X75718Y627257D02*
D03*
X92254D02*
D03*
X119513Y404576D02*
D03*
X136049D02*
D03*
D78*
X86614Y658583D02*
D03*
Y652441D02*
D03*
X86528Y646291D02*
D03*
Y640150D02*
D03*
D79*
X298406Y374803D02*
D03*
X262579D02*
D03*
Y392520D02*
D03*
X298406D02*
D03*
D80*
X372813Y292441D02*
D03*
X370913D02*
D03*
X368913D02*
D03*
X366913D02*
D03*
X364913D02*
D03*
X363013D02*
D03*
X361013D02*
D03*
X359013D02*
D03*
X357113D02*
D03*
X355113D02*
D03*
X353113D02*
D03*
X351213D02*
D03*
X349213D02*
D03*
X347213D02*
D03*
X345313D02*
D03*
X343313D02*
D03*
X341313D02*
D03*
X339413D02*
D03*
X337413D02*
D03*
X335413D02*
D03*
X333513D02*
D03*
X331513D02*
D03*
X329513D02*
D03*
X327513D02*
D03*
X325613D02*
D03*
Y352441D02*
D03*
X327513D02*
D03*
X329513D02*
D03*
X331513D02*
D03*
X333513D02*
D03*
X335413D02*
D03*
X337413D02*
D03*
X339413D02*
D03*
X341313D02*
D03*
X343313D02*
D03*
X345313D02*
D03*
X347213D02*
D03*
X349213D02*
D03*
X351213D02*
D03*
X353113D02*
D03*
X355113D02*
D03*
X357113D02*
D03*
X359013D02*
D03*
X361013D02*
D03*
X363013D02*
D03*
X364913D02*
D03*
X366913D02*
D03*
X368913D02*
D03*
X370913D02*
D03*
X372813D02*
D03*
D81*
X319213Y298841D02*
D03*
Y300741D02*
D03*
Y302741D02*
D03*
Y304741D02*
D03*
Y306741D02*
D03*
Y308641D02*
D03*
Y310641D02*
D03*
Y312641D02*
D03*
Y314541D02*
D03*
Y316541D02*
D03*
Y318541D02*
D03*
Y320441D02*
D03*
Y322441D02*
D03*
Y324441D02*
D03*
Y326341D02*
D03*
Y328341D02*
D03*
Y330341D02*
D03*
Y332241D02*
D03*
Y334241D02*
D03*
Y336241D02*
D03*
Y338141D02*
D03*
Y340141D02*
D03*
Y342141D02*
D03*
Y344141D02*
D03*
Y346041D02*
D03*
X379213D02*
D03*
Y344141D02*
D03*
Y342141D02*
D03*
Y340141D02*
D03*
Y338141D02*
D03*
Y336241D02*
D03*
Y334241D02*
D03*
Y332241D02*
D03*
Y330341D02*
D03*
Y328341D02*
D03*
Y326341D02*
D03*
Y324441D02*
D03*
Y322441D02*
D03*
Y320441D02*
D03*
Y318541D02*
D03*
Y316541D02*
D03*
Y314541D02*
D03*
Y312641D02*
D03*
Y310641D02*
D03*
Y308641D02*
D03*
Y306741D02*
D03*
Y304741D02*
D03*
Y302741D02*
D03*
Y300741D02*
D03*
Y298841D02*
D03*
D82*
X428365Y488417D02*
D03*
X423365D02*
D03*
X418365D02*
D03*
X413365D02*
D03*
X408365D02*
D03*
X403365D02*
D03*
X398365D02*
D03*
X393365D02*
D03*
X388365D02*
D03*
X383365D02*
D03*
X378365D02*
D03*
X373365D02*
D03*
X428365Y452196D02*
D03*
X423365D02*
D03*
X418365D02*
D03*
X413365D02*
D03*
X408365D02*
D03*
X403365D02*
D03*
X398365D02*
D03*
X393365D02*
D03*
X388365D02*
D03*
X383365D02*
D03*
X378365D02*
D03*
X373365D02*
D03*
D83*
X597642Y466429D02*
D03*
Y483437D02*
D03*
X587837Y327518D02*
D03*
Y344526D02*
D03*
D84*
X602364Y450427D02*
D03*
X585356D02*
D03*
X604254Y421694D02*
D03*
X587246D02*
D03*
X256487Y541365D02*
D03*
X273495D02*
D03*
D85*
X654820Y320254D02*
D03*
Y330254D02*
D03*
Y340254D02*
D03*
X655034Y394696D02*
D03*
Y384696D02*
D03*
Y374696D02*
D03*
D86*
X614072Y330254D02*
D03*
X614286Y384696D02*
D03*
D87*
X640144Y281743D02*
D03*
X646837D02*
D03*
X636555Y305268D02*
D03*
X643248D02*
D03*
X658626D02*
D03*
X651933D02*
D03*
X381502Y497925D02*
D03*
X388195D02*
D03*
X302338Y239489D02*
D03*
X295646D02*
D03*
X287461D02*
D03*
X280768D02*
D03*
X120463Y444135D02*
D03*
X113770D02*
D03*
X143472Y459729D02*
D03*
X150165D02*
D03*
X116142Y492820D02*
D03*
X122835D02*
D03*
X211259Y491918D02*
D03*
X204566D02*
D03*
X389692Y272213D02*
D03*
X382999D02*
D03*
X342742Y275692D02*
D03*
X336049D02*
D03*
X342742Y283454D02*
D03*
X336049D02*
D03*
X382999Y279761D02*
D03*
X389691D02*
D03*
X389732Y295622D02*
D03*
X396425D02*
D03*
X520527Y575436D02*
D03*
X527220D02*
D03*
X520430Y568709D02*
D03*
X527122D02*
D03*
X472063Y550295D02*
D03*
X478756D02*
D03*
X357806Y550344D02*
D03*
X364499D02*
D03*
X403364Y575436D02*
D03*
X410057D02*
D03*
X403422Y568709D02*
D03*
X410115D02*
D03*
X256496Y528740D02*
D03*
X263189D02*
D03*
X227111Y540273D02*
D03*
X233804D02*
D03*
X202545D02*
D03*
X195853D02*
D03*
X595580Y572866D02*
D03*
X602273D02*
D03*
X595580Y564295D02*
D03*
X602273D02*
D03*
X595580Y555724D02*
D03*
X602273D02*
D03*
X595580Y547153D02*
D03*
X602273D02*
D03*
X595580Y537881D02*
D03*
X602273D02*
D03*
X595580Y512169D02*
D03*
X602273D02*
D03*
X595580Y529310D02*
D03*
X602273D02*
D03*
X595580Y520739D02*
D03*
X602273D02*
D03*
X651933Y358282D02*
D03*
X658626D02*
D03*
X268338Y600244D02*
D03*
X261645D02*
D03*
X268338Y607244D02*
D03*
X261645D02*
D03*
X213257Y587564D02*
D03*
X206565D02*
D03*
D88*
X648431Y297094D02*
D03*
Y289614D02*
D03*
X638549D02*
D03*
Y293354D02*
D03*
Y297094D02*
D03*
D89*
X166500Y526135D02*
D03*
X160359D02*
D03*
X166500Y513704D02*
D03*
X160359D02*
D03*
X327244Y359449D02*
D03*
X333386D02*
D03*
X114685Y504540D02*
D03*
X120826D02*
D03*
X122437Y485568D02*
D03*
X116295D02*
D03*
X108704Y492820D02*
D03*
X102562D02*
D03*
X366030Y369742D02*
D03*
X359888D02*
D03*
X209677Y526135D02*
D03*
X215818D02*
D03*
X68032Y544094D02*
D03*
X61890D02*
D03*
X68032Y562992D02*
D03*
X61890D02*
D03*
X68032Y553543D02*
D03*
X61890D02*
D03*
X68032Y581890D02*
D03*
X61890D02*
D03*
Y572441D02*
D03*
X68032D02*
D03*
D90*
X364998Y443189D02*
D03*
X361258D02*
D03*
X357517D02*
D03*
X364998Y433307D02*
D03*
X361258D02*
D03*
X357517D02*
D03*
D91*
X80692Y529479D02*
D03*
X84432Y521605D02*
D03*
X76952D02*
D03*
X94463D02*
D03*
X90723Y529479D02*
D03*
X98203D02*
D03*
X80381Y454680D02*
D03*
X76641Y462554D02*
D03*
X84121D02*
D03*
X91147Y613774D02*
D03*
X94887Y605900D02*
D03*
X87406D02*
D03*
D92*
X76477Y444039D02*
D03*
X84351Y447779D02*
D03*
Y440299D02*
D03*
D93*
X149299Y491900D02*
D03*
X186701D02*
D03*
D94*
X382723Y288234D02*
D03*
X389495D02*
D03*
D95*
X169367Y404576D02*
D03*
X153225D02*
D03*
D96*
X155557Y389719D02*
D03*
Y384719D02*
D03*
Y379719D02*
D03*
Y374719D02*
D03*
Y369719D02*
D03*
Y364719D02*
D03*
Y359719D02*
D03*
Y354719D02*
D03*
Y349719D02*
D03*
Y344719D02*
D03*
X119022D02*
D03*
Y349719D02*
D03*
Y354719D02*
D03*
Y359719D02*
D03*
Y364719D02*
D03*
Y369719D02*
D03*
Y374719D02*
D03*
Y379719D02*
D03*
Y384719D02*
D03*
Y389719D02*
D03*
X155577Y336154D02*
D03*
Y331154D02*
D03*
Y326154D02*
D03*
Y321154D02*
D03*
Y316154D02*
D03*
Y311154D02*
D03*
Y306154D02*
D03*
Y301154D02*
D03*
Y296154D02*
D03*
Y291154D02*
D03*
X119041D02*
D03*
Y296154D02*
D03*
Y301154D02*
D03*
Y306154D02*
D03*
Y311154D02*
D03*
Y316154D02*
D03*
Y321154D02*
D03*
Y326154D02*
D03*
Y331154D02*
D03*
Y336154D02*
D03*
X119118Y237289D02*
D03*
Y242289D02*
D03*
Y247289D02*
D03*
Y252289D02*
D03*
Y257289D02*
D03*
Y262289D02*
D03*
Y267289D02*
D03*
Y272289D02*
D03*
Y277289D02*
D03*
Y282289D02*
D03*
X155653D02*
D03*
Y277289D02*
D03*
Y272289D02*
D03*
Y267289D02*
D03*
Y262289D02*
D03*
Y257289D02*
D03*
Y252289D02*
D03*
Y247289D02*
D03*
Y242289D02*
D03*
Y237289D02*
D03*
X119005Y183075D02*
D03*
Y188075D02*
D03*
Y193075D02*
D03*
Y198075D02*
D03*
Y203075D02*
D03*
Y208075D02*
D03*
Y213075D02*
D03*
Y218075D02*
D03*
Y223075D02*
D03*
Y228075D02*
D03*
X155540D02*
D03*
Y223075D02*
D03*
Y218075D02*
D03*
Y213075D02*
D03*
Y208075D02*
D03*
Y203075D02*
D03*
Y198075D02*
D03*
Y193075D02*
D03*
Y188075D02*
D03*
Y183075D02*
D03*
D97*
X358268Y361417D02*
D03*
X362992D02*
D03*
X367717D02*
D03*
D98*
X115957Y526897D02*
D03*
Y524338D02*
D03*
Y521779D02*
D03*
Y519220D02*
D03*
Y516661D02*
D03*
Y514102D02*
D03*
Y511543D02*
D03*
X138556D02*
D03*
Y514102D02*
D03*
Y516661D02*
D03*
Y519220D02*
D03*
Y521779D02*
D03*
Y524338D02*
D03*
Y526897D02*
D03*
D99*
X444184Y614199D02*
D03*
Y590380D02*
D03*
X524805Y614199D02*
D03*
Y590380D02*
D03*
X412238D02*
D03*
Y614199D02*
D03*
X329811Y590380D02*
D03*
Y614199D02*
D03*
D100*
X484206Y574091D02*
D03*
X369747D02*
D03*
D101*
X495545Y590725D02*
D03*
Y588166D02*
D03*
Y585607D02*
D03*
Y583048D02*
D03*
Y580489D02*
D03*
Y577930D02*
D03*
Y575371D02*
D03*
Y572812D02*
D03*
Y570252D02*
D03*
Y567693D02*
D03*
Y565134D02*
D03*
Y562575D02*
D03*
Y560016D02*
D03*
Y557457D02*
D03*
X472868D02*
D03*
Y560016D02*
D03*
Y562575D02*
D03*
Y565134D02*
D03*
Y567693D02*
D03*
Y570252D02*
D03*
Y572812D02*
D03*
Y575371D02*
D03*
Y577930D02*
D03*
Y580489D02*
D03*
Y583048D02*
D03*
Y585607D02*
D03*
Y588166D02*
D03*
Y590725D02*
D03*
X381085D02*
D03*
Y588166D02*
D03*
Y585607D02*
D03*
Y583048D02*
D03*
Y580489D02*
D03*
Y577930D02*
D03*
Y575371D02*
D03*
Y572812D02*
D03*
Y570252D02*
D03*
Y567693D02*
D03*
Y565134D02*
D03*
Y562575D02*
D03*
Y560016D02*
D03*
Y557457D02*
D03*
X358408D02*
D03*
Y560016D02*
D03*
Y562575D02*
D03*
Y565134D02*
D03*
Y567693D02*
D03*
Y570252D02*
D03*
Y572812D02*
D03*
Y575371D02*
D03*
Y577930D02*
D03*
Y580489D02*
D03*
Y583048D02*
D03*
Y585607D02*
D03*
Y588166D02*
D03*
Y590725D02*
D03*
D102*
X561003Y510897D02*
D03*
Y530582D02*
D03*
Y407691D02*
D03*
Y427376D02*
D03*
Y375188D02*
D03*
Y355503D02*
D03*
Y304484D02*
D03*
Y324169D02*
D03*
Y478395D02*
D03*
Y458710D02*
D03*
D103*
X233568Y555502D02*
D03*
X196166D02*
D03*
D104*
X53771Y603301D02*
D03*
X60779D02*
D03*
D105*
X154201Y155292D02*
D03*
X120343D02*
D03*
X154201Y145292D02*
D03*
X120343D02*
D03*
D106*
X234970Y590596D02*
D03*
Y584533D02*
D03*
X185827Y594606D02*
D03*
Y600669D02*
D03*
D107*
X128754Y564331D02*
D03*
Y566890D02*
D03*
Y569449D02*
D03*
Y572008D02*
D03*
X111706D02*
D03*
Y569449D02*
D03*
Y566890D02*
D03*
Y564331D02*
D03*
D108*
X85945Y586024D02*
D03*
X93583Y582283D02*
D03*
X85945Y578740D02*
D03*
Y544291D02*
D03*
X93583Y540551D02*
D03*
X85945Y537008D02*
D03*
D109*
X282874Y250374D02*
D03*
X284843D02*
D03*
X286811D02*
D03*
X288780D02*
D03*
Y261437D02*
D03*
X286811D02*
D03*
X284843D02*
D03*
X282874D02*
D03*
D110*
X226222Y600738D02*
D03*
Y603888D02*
D03*
Y607038D02*
D03*
Y610187D02*
D03*
Y613337D02*
D03*
Y616487D02*
D03*
Y619636D02*
D03*
Y622786D02*
D03*
X193387D02*
D03*
Y619636D02*
D03*
Y616487D02*
D03*
Y613337D02*
D03*
Y610187D02*
D03*
Y607038D02*
D03*
Y603888D02*
D03*
Y600738D02*
D03*
D111*
X198781Y595345D02*
D03*
X201931D02*
D03*
X205080D02*
D03*
X208230D02*
D03*
X211380D02*
D03*
X214529D02*
D03*
X217679D02*
D03*
X220828D02*
D03*
Y628179D02*
D03*
X217679D02*
D03*
X214529D02*
D03*
X211380D02*
D03*
X208230D02*
D03*
X205080D02*
D03*
X201931D02*
D03*
X198781D02*
D03*
D112*
X47638Y577165D02*
D03*
Y567323D02*
D03*
Y550394D02*
D03*
X37795Y577165D02*
D03*
X47638Y558661D02*
D03*
X37795Y568898D02*
D03*
Y550394D02*
D03*
D113*
X25984Y537205D02*
D03*
Y590354D02*
D03*
D114*
X37795Y558661D02*
D03*
D115*
X22835Y563780D02*
D03*
D116*
X31590Y349356D02*
D03*
Y338450D02*
D03*
Y327545D02*
D03*
Y316639D02*
D03*
Y305734D02*
D03*
Y294828D02*
D03*
Y283923D02*
D03*
Y273017D02*
D03*
Y262112D02*
D03*
Y251206D02*
D03*
Y240301D02*
D03*
Y229395D02*
D03*
X43145Y354691D02*
D03*
Y343785D02*
D03*
Y332880D02*
D03*
Y321974D02*
D03*
Y311069D02*
D03*
Y300163D02*
D03*
Y289257D02*
D03*
Y278352D02*
D03*
Y267446D02*
D03*
Y256541D02*
D03*
Y245635D02*
D03*
Y234730D02*
D03*
X449206Y501848D02*
D03*
X459206D02*
D03*
X469206D02*
D03*
X479206D02*
D03*
X489206D02*
D03*
X499206D02*
D03*
X509206D02*
D03*
X519206D02*
D03*
X459206Y451848D02*
D03*
X469206D02*
D03*
X479206D02*
D03*
X489206D02*
D03*
X499206D02*
D03*
X509206D02*
D03*
X519206D02*
D03*
Y491848D02*
D03*
Y481848D02*
D03*
D117*
X43145Y223824D02*
D03*
D118*
X37200Y382486D02*
D03*
Y197289D02*
D03*
D119*
X429848Y35667D02*
D03*
X419848D02*
D03*
X429848Y45667D02*
D03*
X419848D02*
D03*
X405833Y11561D02*
D03*
X395833D02*
D03*
X385833D02*
D03*
X375833D02*
D03*
X365833D02*
D03*
X355833D02*
D03*
X405833Y21561D02*
D03*
X395833D02*
D03*
X385833D02*
D03*
X375833D02*
D03*
X365833D02*
D03*
X355833D02*
D03*
X345833Y11561D02*
D03*
Y21561D02*
D03*
X335833Y11561D02*
D03*
X325833D02*
D03*
X315833D02*
D03*
X305833D02*
D03*
X295833D02*
D03*
X285833D02*
D03*
X335833Y21561D02*
D03*
X325833D02*
D03*
X315833D02*
D03*
X305833D02*
D03*
X295833D02*
D03*
X285833D02*
D03*
X275833Y11561D02*
D03*
Y21561D02*
D03*
X265833Y11561D02*
D03*
X255833D02*
D03*
X245833D02*
D03*
X235833D02*
D03*
X225833D02*
D03*
X215833D02*
D03*
X265833Y21561D02*
D03*
X255833D02*
D03*
X245833D02*
D03*
X235833D02*
D03*
X225833D02*
D03*
X62977Y185316D02*
D03*
Y235316D02*
D03*
Y245316D02*
D03*
Y195316D02*
D03*
Y205316D02*
D03*
Y215316D02*
D03*
Y225316D02*
D03*
Y255316D02*
D03*
Y265316D02*
D03*
Y275316D02*
D03*
X76075Y296202D02*
D03*
Y346202D02*
D03*
Y356202D02*
D03*
Y306202D02*
D03*
Y316202D02*
D03*
Y326202D02*
D03*
Y336202D02*
D03*
Y366202D02*
D03*
Y376202D02*
D03*
Y386202D02*
D03*
X63003Y296202D02*
D03*
Y346202D02*
D03*
Y356202D02*
D03*
Y306202D02*
D03*
Y316202D02*
D03*
Y326202D02*
D03*
Y336202D02*
D03*
Y366202D02*
D03*
Y376202D02*
D03*
Y386202D02*
D03*
X76533Y185423D02*
D03*
Y235423D02*
D03*
Y245423D02*
D03*
Y195423D02*
D03*
Y205423D02*
D03*
Y215423D02*
D03*
Y225423D02*
D03*
Y255423D02*
D03*
Y265423D02*
D03*
Y275423D02*
D03*
D120*
X215833Y21561D02*
D03*
D121*
X196659Y16561D02*
D03*
X425006D02*
D03*
Y209474D02*
D03*
X196659D02*
D03*
D122*
X650000Y25000D02*
D03*
Y645000D02*
D03*
X130000D02*
D03*
X40000Y25000D02*
D03*
D123*
X148689Y8588D02*
D03*
X131056Y8404D02*
D03*
X271308Y250842D02*
D03*
X293307Y308780D02*
D03*
D124*
X148689Y18588D02*
D03*
X131056Y18404D02*
D03*
X271308Y260842D02*
D03*
X293307Y318780D02*
D03*
D125*
X109836Y9978D02*
D03*
X262998Y623901D02*
D03*
X413696Y391277D02*
D03*
D126*
X99836Y9978D02*
D03*
X109836Y19978D02*
D03*
X99836D02*
D03*
X109836Y29978D02*
D03*
X99836D02*
D03*
X252998Y643901D02*
D03*
X262998D02*
D03*
X252998Y633901D02*
D03*
X262998D02*
D03*
X252998Y623901D02*
D03*
X423696Y391277D02*
D03*
X413696Y381277D02*
D03*
X423696D02*
D03*
X413696Y371277D02*
D03*
X423696D02*
D03*
D127*
X41929Y609370D02*
D03*
Y656772D02*
D03*
X42599Y472680D02*
D03*
Y524412D02*
D03*
X64961Y472680D02*
D03*
Y524412D02*
D03*
X42285Y404152D02*
D03*
Y455885D02*
D03*
X64647Y404152D02*
D03*
Y455885D02*
D03*
X207912Y400836D02*
D03*
Y452568D02*
D03*
D128*
X52598Y627992D02*
D03*
Y637835D02*
D03*
X60472D02*
D03*
X53268Y484767D02*
D03*
Y494609D02*
D03*
Y502483D02*
D03*
X63583Y484767D02*
D03*
Y494609D02*
D03*
Y502483D02*
D03*
X52954Y416239D02*
D03*
Y426082D02*
D03*
Y433956D02*
D03*
X63269Y416239D02*
D03*
Y426082D02*
D03*
Y433956D02*
D03*
X197243Y422765D02*
D03*
Y430639D02*
D03*
Y440482D02*
D03*
D129*
X60472Y627992D02*
D03*
X53268Y512326D02*
D03*
X63583D02*
D03*
X52954Y443798D02*
D03*
X63269D02*
D03*
X197243Y412923D02*
D03*
D130*
X447238Y521165D02*
D03*
X437238D02*
D03*
X427238D02*
D03*
X417238D02*
D03*
X407238D02*
D03*
X397238D02*
D03*
X387238D02*
D03*
X447293Y539347D02*
D03*
X437293D02*
D03*
X427293D02*
D03*
X417293D02*
D03*
X407293D02*
D03*
X397293D02*
D03*
X387293D02*
D03*
X203752Y282442D02*
D03*
Y292442D02*
D03*
Y302442D02*
D03*
Y312442D02*
D03*
Y322442D02*
D03*
Y332442D02*
D03*
Y342442D02*
D03*
X494607Y352619D02*
D03*
Y342619D02*
D03*
Y332619D02*
D03*
Y322619D02*
D03*
Y312619D02*
D03*
Y302619D02*
D03*
Y292619D02*
D03*
X463866Y521165D02*
D03*
X473866D02*
D03*
X483866D02*
D03*
X493866D02*
D03*
X503866D02*
D03*
X513866D02*
D03*
X523866D02*
D03*
X381838Y254055D02*
D03*
X371838D02*
D03*
X361838D02*
D03*
X351838D02*
D03*
X341838D02*
D03*
X331838D02*
D03*
X321838D02*
D03*
X381838Y390551D02*
D03*
X371838D02*
D03*
X361838D02*
D03*
X351838D02*
D03*
X341838D02*
D03*
X331838D02*
D03*
X321838D02*
D03*
D131*
X377238Y521165D02*
D03*
X377293Y539347D02*
D03*
X533866Y521165D02*
D03*
X391838Y254055D02*
D03*
Y390551D02*
D03*
D132*
X614919Y466032D02*
D03*
D133*
X203752Y352442D02*
D03*
X494607Y282619D02*
D03*
D134*
X479907Y633189D02*
D03*
X489907D02*
D03*
X499907D02*
D03*
X365755D02*
D03*
X375755D02*
D03*
X385755D02*
D03*
X587837Y399091D02*
D03*
Y389091D02*
D03*
Y379091D02*
D03*
X360647Y455306D02*
D03*
Y465306D02*
D03*
Y475306D02*
D03*
X518813Y431926D02*
D03*
X508813D02*
D03*
X498813D02*
D03*
D135*
X469907Y633189D02*
D03*
X355755D02*
D03*
X488813Y431926D02*
D03*
D136*
X649735Y502918D02*
D03*
Y573784D02*
D03*
D137*
X644026Y556068D02*
D03*
Y544257D02*
D03*
Y532446D02*
D03*
Y520635D02*
D03*
X632215Y556068D02*
D03*
Y544257D02*
D03*
Y532446D02*
D03*
D138*
Y520635D02*
D03*
D139*
X638364Y466032D02*
D03*
D140*
X625569Y484497D02*
D03*
D141*
X587837Y369091D02*
D03*
X360647Y485306D02*
D03*
D142*
X449206Y451848D02*
D03*
D143*
X608200Y546000D02*
D03*
Y563400D02*
D03*
X633300Y580702D02*
D03*
X616765D02*
D03*
X627788D02*
D03*
X622276D02*
D03*
Y571600D02*
D03*
X627788D02*
D03*
X616765D02*
D03*
X633300D02*
D03*
X663900Y433100D02*
D03*
X121433Y447603D02*
D03*
X362100Y607600D02*
D03*
X366113Y567600D02*
D03*
X373200D02*
D03*
X213400Y582400D02*
D03*
X284900Y267200D02*
D03*
X393400Y481900D02*
D03*
X198700Y602500D02*
D03*
X160000Y597400D02*
D03*
X361200Y447800D02*
D03*
X180305Y578734D02*
D03*
Y583600D02*
D03*
X175200D02*
D03*
X111400Y524300D02*
D03*
X175200Y404600D02*
D03*
X331200Y154100D02*
D03*
X161100Y183100D02*
D03*
X322480Y184500D02*
D03*
X161100Y321154D02*
D03*
Y252289D02*
D03*
X402043Y186500D02*
D03*
X147800Y251700D02*
D03*
X381960Y187590D02*
D03*
X150000Y198700D02*
D03*
X296624Y192500D02*
D03*
X150000Y359700D02*
D03*
X373900Y187000D02*
D03*
X190400Y374719D02*
D03*
X379000Y180800D02*
D03*
X150000Y379700D02*
D03*
X261939Y179600D02*
D03*
X258400Y194200D02*
D03*
X161100Y311200D02*
D03*
X162800Y237300D02*
D03*
X179500Y247289D02*
D03*
X396619Y195300D02*
D03*
X344783Y28000D02*
D03*
X209721Y38779D02*
D03*
X149325Y243075D02*
D03*
X393200Y184100D02*
D03*
X176700Y340600D02*
D03*
X283400Y185100D02*
D03*
X161100Y193100D02*
D03*
X275800Y181300D02*
D03*
X177200Y242289D02*
D03*
X164000Y203075D02*
D03*
X279100Y185800D02*
D03*
X173800Y316154D02*
D03*
X308500Y194700D02*
D03*
X309500Y189200D02*
D03*
X167900Y188075D02*
D03*
X150000Y332400D02*
D03*
X337800Y204891D02*
D03*
X302338Y248962D02*
D03*
X118400Y169800D02*
D03*
X152000Y151500D02*
D03*
X104100Y225800D02*
D03*
X152000Y400000D02*
D03*
X404000Y303200D02*
D03*
X138500Y588500D02*
D03*
X555200Y303200D02*
D03*
X404000Y552000D02*
D03*
X523600Y551900D02*
D03*
X277102Y239489D02*
D03*
X323613Y326341D02*
D03*
X363013Y348041D02*
D03*
X106693Y522814D02*
D03*
X111367Y519220D02*
D03*
X113598Y534822D02*
D03*
X121258D02*
D03*
X349576Y445824D02*
D03*
X149206Y587011D02*
D03*
X95547Y595026D02*
D03*
X162045Y588976D02*
D03*
X393365Y458027D02*
D03*
X279503Y541365D02*
D03*
X276809Y587042D02*
D03*
X279959Y580222D02*
D03*
X283493Y622551D02*
D03*
X368800Y345800D02*
D03*
X568500Y4000D02*
D03*
X110300Y352500D02*
D03*
X112200Y223200D02*
D03*
X112300Y301200D02*
D03*
X105400Y243000D02*
D03*
X104800Y189000D02*
D03*
X172900Y330100D02*
D03*
X173600Y383500D02*
D03*
X145500Y454600D02*
D03*
X134700Y459900D02*
D03*
X106100Y450100D02*
D03*
X95700Y462900D02*
D03*
X108200Y475900D02*
D03*
X125700Y477000D02*
D03*
X106800Y437600D02*
D03*
X109900Y426300D02*
D03*
X116900Y425300D02*
D03*
X122300Y425400D02*
D03*
X131800Y473800D02*
D03*
X110100Y444100D02*
D03*
X97100Y487900D02*
D03*
Y495700D02*
D03*
X211000Y498600D02*
D03*
X123900Y457600D02*
D03*
X114800D02*
D03*
X123900Y466800D02*
D03*
X114800D02*
D03*
X173000Y466400D02*
D03*
X368100Y297700D02*
D03*
X288700Y244800D02*
D03*
X290800Y267200D02*
D03*
X165800Y145300D02*
D03*
X165600Y155400D02*
D03*
X73500Y466400D02*
D03*
X90000Y446700D02*
D03*
X86900Y530300D02*
D03*
X87000Y514900D02*
D03*
X624498Y320984D02*
D03*
Y337519D02*
D03*
Y326496D02*
D03*
Y332008D02*
D03*
X633600Y332324D02*
D03*
Y326812D02*
D03*
Y337835D02*
D03*
Y321300D02*
D03*
X620398Y375984D02*
D03*
Y392519D02*
D03*
Y381496D02*
D03*
Y387008D02*
D03*
X629500D02*
D03*
Y381496D02*
D03*
Y392519D02*
D03*
Y375984D02*
D03*
X600298D02*
D03*
Y392519D02*
D03*
Y381496D02*
D03*
Y387008D02*
D03*
X609400D02*
D03*
Y381496D02*
D03*
Y392519D02*
D03*
Y375984D02*
D03*
X152300Y463800D02*
D03*
X154700Y470800D02*
D03*
X153542Y453795D02*
D03*
X131700Y446700D02*
D03*
X135900Y467500D02*
D03*
X113300Y480300D02*
D03*
X110700Y499100D02*
D03*
X98200Y450000D02*
D03*
X89922Y460522D02*
D03*
X98400Y535700D02*
D03*
X76800Y514900D02*
D03*
X102800Y446600D02*
D03*
X126600Y438400D02*
D03*
X129700Y442300D02*
D03*
X90100Y443100D02*
D03*
X128980Y485478D02*
D03*
X171900Y496100D02*
D03*
X145558Y513749D02*
D03*
X100714Y455386D02*
D03*
X380200Y439900D02*
D03*
X152958Y518449D02*
D03*
X339400Y318800D02*
D03*
X349900Y578000D02*
D03*
X280500Y495500D02*
D03*
X380200Y444400D02*
D03*
X358500Y438700D02*
D03*
X364300D02*
D03*
X364923Y424962D02*
D03*
X277200Y525100D02*
D03*
X515300Y563700D02*
D03*
X419245Y443875D02*
D03*
X490400Y556500D02*
D03*
X398524Y480218D02*
D03*
X403700Y477953D02*
D03*
X407600Y475100D02*
D03*
X428346Y497244D02*
D03*
X502900Y555300D02*
D03*
X357600Y425000D02*
D03*
X388200Y554900D02*
D03*
X502539Y570079D02*
D03*
Y562700D02*
D03*
X401700Y554000D02*
D03*
X388200Y559843D02*
D03*
X373100Y317200D02*
D03*
X403500Y444100D02*
D03*
X461024Y577165D02*
D03*
X480709Y570735D02*
D03*
Y567454D02*
D03*
X467200Y578700D02*
D03*
X369315Y302215D02*
D03*
X373700Y300800D02*
D03*
X270600Y575900D02*
D03*
X273800Y578500D02*
D03*
X87600Y596700D02*
D03*
X111206Y531500D02*
D03*
X148700Y606700D02*
D03*
X350022Y625591D02*
D03*
X353959D02*
D03*
X468110D02*
D03*
X464173D02*
D03*
X491339Y620079D02*
D03*
X373644Y616929D02*
D03*
X487795D02*
D03*
X373644Y620079D02*
D03*
X484252D02*
D03*
X487795D02*
D03*
X370100D02*
D03*
X377187D02*
D03*
X477802Y607294D02*
D03*
X491560D02*
D03*
X484612D02*
D03*
X198700Y635100D02*
D03*
X178700Y598400D02*
D03*
X240712Y606980D02*
D03*
Y590480D02*
D03*
X388278Y314238D02*
D03*
X385200Y318000D02*
D03*
X111206Y554664D02*
D03*
X130306D02*
D03*
X104500Y570800D02*
D03*
X128306Y578664D02*
D03*
X221814Y546185D02*
D03*
X217089D02*
D03*
X212365D02*
D03*
X207641D02*
D03*
X205000Y582494D02*
D03*
X208451D02*
D03*
X73800Y607094D02*
D03*
X82600Y607100D02*
D03*
X96100Y642594D02*
D03*
X93526Y642945D02*
D03*
X310227Y392135D02*
D03*
X389370Y300394D02*
D03*
X385039D02*
D03*
X347600Y274870D02*
D03*
X332283Y298032D02*
D03*
X347600Y285500D02*
D03*
Y279988D02*
D03*
X331496Y274803D02*
D03*
Y285433D02*
D03*
Y279921D02*
D03*
X423228Y497244D02*
D03*
X378130Y479921D02*
D03*
X502539Y577165D02*
D03*
X508051Y557480D02*
D03*
X387973Y570079D02*
D03*
Y577165D02*
D03*
X373228Y564173D02*
D03*
X351575Y557087D02*
D03*
X366800Y612300D02*
D03*
X379600D02*
D03*
X364477Y596063D02*
D03*
X369792D02*
D03*
X375107D02*
D03*
X369792Y589370D02*
D03*
X359163Y596063D02*
D03*
X380422D02*
D03*
X351596Y622441D02*
D03*
X373644Y623622D02*
D03*
X377187D02*
D03*
X332283Y584252D02*
D03*
X337008D02*
D03*
X341732D02*
D03*
X346457D02*
D03*
X389370D02*
D03*
X394094D02*
D03*
X398819D02*
D03*
X403543D02*
D03*
X458709D02*
D03*
X465748Y622441D02*
D03*
X491339Y623622D02*
D03*
X487795D02*
D03*
X449260Y584252D02*
D03*
X453984D02*
D03*
X463433D02*
D03*
X516929D02*
D03*
X512205D02*
D03*
X507480D02*
D03*
X502756D02*
D03*
X493686Y611600D02*
D03*
X480300D02*
D03*
X494882Y596063D02*
D03*
X473622D02*
D03*
X484252Y589370D02*
D03*
X489567Y596063D02*
D03*
X484252D02*
D03*
X478937D02*
D03*
X578662Y312551D02*
D03*
X595198D02*
D03*
X584174D02*
D03*
X589686D02*
D03*
X589370Y321654D02*
D03*
X583858D02*
D03*
X594882D02*
D03*
X578346D02*
D03*
X651504Y310471D02*
D03*
X662528Y314408D02*
D03*
X647567Y304959D02*
D03*
X662528Y324644D02*
D03*
X652292D02*
D03*
X647174Y358896D02*
D03*
X638512Y362046D02*
D03*
X642843Y365983D02*
D03*
X650717Y370313D02*
D03*
X646386D02*
D03*
X561347Y434093D02*
D03*
Y450235D02*
D03*
X571189Y434093D02*
D03*
X551898D02*
D03*
X571189Y444723D02*
D03*
Y450235D02*
D03*
X551898Y444723D02*
D03*
Y450235D02*
D03*
X617323Y524016D02*
D03*
Y519094D02*
D03*
Y528937D02*
D03*
X626378Y533858D02*
D03*
Y514173D02*
D03*
Y528937D02*
D03*
Y519094D02*
D03*
Y524016D02*
D03*
X607874Y519094D02*
D03*
Y524016D02*
D03*
Y528937D02*
D03*
X623622Y511417D02*
D03*
X611417D02*
D03*
X607874Y514173D02*
D03*
X623622Y536614D02*
D03*
X611417D02*
D03*
X607874Y533858D02*
D03*
X366142Y583858D02*
D03*
Y580577D02*
D03*
Y574016D02*
D03*
Y570735D02*
D03*
Y564173D02*
D03*
X373228Y583858D02*
D03*
Y580577D02*
D03*
Y577297D02*
D03*
Y570735D02*
D03*
X487795Y564173D02*
D03*
Y567454D02*
D03*
Y570735D02*
D03*
Y577297D02*
D03*
Y580577D02*
D03*
Y583858D02*
D03*
X480709Y564173D02*
D03*
Y574016D02*
D03*
Y580577D02*
D03*
Y583858D02*
D03*
D144*
X338976Y576772D02*
D03*
M02*
