M48
;Layer_Color=9474304
;FILE_FORMAT=2:5
INCH,LZ
;TYPE=PLATED
T1F00S00C0.00800
T3F00S00C0.02953
T5F00S00C0.03000
T6F00S00C0.03543
T7F00S00C0.03622
T8F00S00C0.03937
T9F00S00C0.03957
T10F00S00C0.04000
T11F00S00C0.04016
T13F00S00C0.04331
T14F00S00C0.09055
T15F00S00C0.10827
T16F00S00C0.12205
T17F00S00C0.15748
;TYPE=NON_PLATED
T18F00S00C0.06181
%
T01
X0209721Y0038779
X0344783Y0028
X05685Y0004
X0402043Y01865
X03932Y01841
X0396619Y01953
X038196Y018759
X03739Y0187
X0379Y01808
X032248Y01845
X03095Y01892
X03085Y01947
X0296624Y01925
X02834Y01851
X02791Y01858
X02758Y01813
X0261939Y01796
X02584Y01942
X03378Y0204891
X03312Y01541
X01656Y01554
X01658Y01453
X0152Y01515
X01611Y01831
Y01931
X01679Y0188075
X0164Y0203075
X015Y01987
X01048Y0189
X01184Y01698
X01122Y02232
X01041Y02258
X01054Y0243
X0149325Y0243075
X01478Y02517
X01611Y0252289
X01628Y02373
X01772Y0242289
X01795Y0247289
X01738Y0316154
X01729Y03301
X01767Y03406
X015Y03324
X01611Y0321154
Y03112
X01123Y03012
X01103Y03525
X015Y03597
X0323613Y0326341
X03394Y03188
X0332283Y0298032
X0331496Y0285433
Y0279921
Y0274803
X03476Y027487
Y0279988
Y02855
X03681Y02977
X0363013Y0348041
X02908Y02672
X02849
X02887Y02448
X0277102Y0239489
X0302338Y0248962
X0369315Y0302215
X03737Y03008
X0385039Y0300394
X038937
X0388278Y0314238
X03852Y0318
X03731Y03172
X03688Y03458
X0404Y03032
X05552
X0578662Y0312551
X0584174
X0589686
X0595198
X0594882Y0321654
X058937
X0583858
X0578346
X0624498Y0320984
Y0326496
Y0332008
Y0337519
X06336Y0337835
Y0332324
Y0326812
Y03213
X0652292Y0324644
X0662528
Y0314408
X0651504Y0310471
X0647567Y0304959
X0647174Y0358896
X0642843Y0365983
X0638512Y0362046
X0646386Y0370313
X0650717
X06295Y0375984
Y0381496
Y0387008
Y0392519
X0620398
Y0387008
Y0381496
Y0375984
X06094
Y0381496
Y0387008
Y0392519
X0600298
Y0387008
Y0381496
Y0375984
X0571189Y0434093
X0561347
X0551898
Y0444723
Y0450235
X0561347
X0571189
Y0444723
X06639Y04331
X0626378Y0514173
Y0519094
Y0524016
X0617323
Y0519094
X0607874
Y0514173
X0611417Y0511417
X0623622
X0607874Y0524016
X0428346Y0497244
X0423228
X04076Y04751
X04037Y0477953
X0398524Y0480218
X03934Y04819
X037813Y0479921
X0393365Y0458027
X04035Y04441
X0419245Y0443875
X03802Y04444
Y04399
X03643Y04387
X03585
X03612Y04478
X0349576Y0445824
X03576Y0425
X0364923Y0424962
X0310227Y0392135
X02805Y04955
X0211Y04986
X01719Y04961
X0173Y04664
X01547Y04708
X01523Y04638
X0153542Y0453795
X01455Y04546
X01347Y04599
X01359Y04675
X01318Y04738
X01257Y0477
X012898Y0485478
X01133Y04803
X01082Y04759
X01148Y04668
X01239
Y04576
X01148
X01061Y04501
X01028Y04466
X00982Y045
X0100714Y0455386
X00957Y04629
X0089922Y0460522
X009Y04467
X00901Y04431
X01101Y04441
X01068Y04376
X01099Y04263
X01169Y04253
X01223Y04254
X01266Y04384
X01297Y04423
X01317Y04467
X0121433Y0447603
X01107Y04991
X00971Y04957
Y04879
X0087Y05149
X00768
X0106693Y0522814
X01114Y05243
X0111367Y051922
X0145558Y0513749
X0152958Y0518449
X0152Y04
X015Y03797
X01736Y03835
X01752Y04046
X01904Y0374719
X00735Y04664
X00869Y05303
X00984Y05357
X0113598Y0534822
X0111206Y05315
X0121258Y0534822
X0130306Y0554664
X0111206
X01045Y05708
X0128306Y0578664
X01385Y05885
X0149206Y0587011
X0162045Y0588976
X016Y05974
X01787Y05984
X0180305Y05836
Y0578734
X01752Y05836
X0205Y0582494
X0208451
X01987Y06025
Y06351
X01487Y06067
X0095547Y0595026
X00876Y05967
X00826Y06071
X00738Y0607094
X0093526Y0642945
X00961Y0642594
X0207641Y0546185
X0212365
X0217089
X0221814
X02134Y05824
X0240712Y059048
Y060698
X0276809Y0587042
X0279959Y0580222
X02738Y05785
X02706Y05759
X0279503Y0541365
X02772Y05251
X0283493Y0622551
X0351596Y0622441
X0350022Y0625591
X0353959
X03621Y06076
X03668Y06123
X0364477Y0596063
X0359163
X0366142Y0583858
Y0580577
Y0574016
Y0570735
X0366113Y05676
X0366142Y0564173
X0351575Y0557087
X03499Y0578
X0346457Y0584252
X0341732
X0337008
X0332283
X0338976Y0576772
X0373228Y0577297
Y0580577
Y0583858
X0369792Y058937
Y0596063
X0375107
X0380422
X03796Y06123
X0377187Y0620079
Y0623622
X0373644
Y0620079
Y0616929
X03701Y0620079
X0373228Y0570735
X03732Y05676
X0373228Y0564173
X03882Y0559843
Y05549
X04017Y0554
X0404Y0552
X0403543Y0584252
X0398819
X0394094
X038937
X0387973Y0577165
Y0570079
X044926Y0584252
X0453984
X0458709
X0463433
X04672Y05787
X0461024Y0577165
X0480709Y0574016
Y0570735
Y0567454
Y0564173
X0487795
Y0567454
Y0570735
Y0577297
Y0580577
Y0583858
X0480709
Y0580577
X0484252Y058937
Y0596063
X0489567
X0494882
X049156Y0607294
X0493686Y06116
X0491339Y0620079
Y0623622
X0487795
Y0620079
Y0616929
X0484252Y0620079
X04803Y06116
X0477802Y0607294
X0484612
X0478937Y0596063
X0473622
X0465748Y0622441
X0464173Y0625591
X046811
X0502756Y0584252
X050748
X0512205
X0516929
X0502539Y0577165
Y0570079
Y05627
X05029Y05553
X0508051Y055748
X05153Y05637
X05236Y05519
X04904Y05565
X06082Y05634
X0616765Y05716
X0622276
X0627788
X06333
Y0580702
X0627788
X0622276
X0616765
X06082Y0546
X0607874Y0533858
Y0528937
X0617323
X0626378
Y0533858
X0623622Y0536614
X0611417
T03
X0203752Y0282442
Y0292442
Y0302442
Y0312442
Y0322442
Y0332442
Y0342442
Y0352442
X0321838Y0254055
X0331838
X0341838
X0351838
X0361838
X0371838
X0381838
X0391838
X0494607Y0282619
Y0292619
Y0302619
Y0312619
Y0322619
Y0332619
Y0342619
Y0352619
X0533866Y0521165
X0523866
X0513866
X0503866
X0493866
X0483866
X0473866
X0463866
X0447238
X0437238
X0427238
X0417238
X0407238
X0397238
X0387238
X0377238
X0381838Y0390551
X0391838
X0371838
X0361838
X0351838
X0341838
X0331838
X0321838
X0377293Y0539347
X0387293
X0397293
X0407293
X0417293
X0427293
X0437293
X0447293
T05
X0062977Y0185316
Y0195316
Y0205316
X0076533Y0205423
Y0195423
Y0185423
Y0215423
Y0225423
Y0235423
Y0245423
Y0255423
Y0265423
Y0275423
X0062977Y0275316
Y0265316
Y0255316
Y0245316
Y0235316
Y0225316
Y0215316
X0063003Y0296202
Y0306202
Y0316202
Y0326202
Y0336202
Y0346202
Y0356202
Y0366202
X0076075Y0366202
Y0356202
Y0346202
Y0336202
Y0326202
Y0316202
Y0306202
Y0296202
Y0376202
Y0386202
X0063003Y0386202
Y0376202
T06
X0037795Y0550394
Y0558661
X0047638
Y0550394
Y0567323
Y0577165
X0037795
Y0568898
T07
X0063269Y0416239
Y0426082
Y0433956
Y0443798
X0063583Y0484767
Y0494609
Y0502483
Y0512326
X0197243Y0440482
Y0430639
Y0422765
Y0412923
X0052954Y0416239
Y0426082
Y0433956
Y0443798
X0053268Y0484767
Y0494609
Y0502483
Y0512326
X0052598Y0627992
Y0637835
X0060472
Y0627992
T08
X003159Y0229395
Y0240301
Y0251206
Y0262112
Y0273017
Y0283923
Y0294828
Y0305734
Y0316639
Y0327545
Y033845
Y0349356
X0043145Y0354691
Y0343785
Y033288
Y0321974
Y0311069
Y0300163
Y0289257
Y0278352
Y0267446
Y0256541
Y0245635
Y023473
Y0223824
X0449206Y0451848
X0459206
X0469206
X0479206
X0489206
X0499206
X0509206
X0519206
Y0481848
Y0491848
Y0501848
X0509206
X0499206
X0489206
X0479206
X0469206
X0459206
X0449206
T09
X0632215Y0520635
X0644026
Y0532446
Y0544257
Y0556068
X0632215
Y0544257
Y0532446
T10
X0215833Y0011561
X0225833
X0235833
X0245833
X0255833
X0265833
X0275833
X0285833
X0295833
X0305833
X0315833
X0325833
X0335833
X0345833
X0355833
X0365833
Y0021561
X0355833
X0345833
X0335833
X0325833
X0315833
X0305833
X0295833
X0285833
X0275833
X0265833
X0255833
X0245833
X0235833
X0225833
X0215833
X0375833
Y0011561
X0385833
X0395833
X0405833
Y0021561
X0395833
X0385833
X0419848Y0035667
X0429848
Y0045667
X0419848
T11
X0099836Y0009978
X0109836
Y0019978
X0099836
Y0029978
X0109836
X0413696Y0371277
Y0381277
Y0391277
X0423696
Y0381277
Y0371277
X0262998Y0623901
Y0633901
Y0643901
X0252998
Y0633901
Y0623901
T13
X0131056Y0008404
Y0018404
X0148689Y0018588
Y0008588
X0271308Y0250842
Y0260842
X0293307Y030878
Y031878
X0587837Y0369091
Y0379091
Y0389091
Y0399091
X0518813Y0431926
X0508813
X0498813
X0488813
X0360647Y0455306
Y0465306
Y0475306
Y0485306
X0355755Y0633189
X0365755
X0375755
X0385755
X0469907
X0479907
X0489907
X0499907
T14
X0064647Y0404152
Y0455885
X0064961Y047268
Y0524412
X0207912Y0452568
Y0400836
X0042285Y0404152
Y0455885
X0042599Y047268
Y0524412
X0041929Y060937
Y0656772
T15
X0196659Y0016561
X0425006
Y0209474
X0196659
T16
X00372Y0197289
Y0382486
T17
X004Y0025
X065
X013Y0645
X065
T18
X0649735Y0502918
Y0573784
M30
