G04*
G04 #@! TF.GenerationSoftware,Altium Limited,Altium Designer,23.3.1 (30)*
G04*
G04 Layer_Color=16711935*
%FSLAX25Y25*%
%MOIN*%
G70*
G04*
G04 #@! TF.SameCoordinates,06538215-238A-4A1E-A02E-8B45A58771C4*
G04*
G04*
G04 #@! TF.FilePolarity,Negative*
G04*
G01*
G75*
%ADD112C,0.06343*%
%ADD113O,0.11548X0.05642*%
%ADD114R,0.06343X0.06343*%
%ADD115O,0.05642X0.11548*%
%ADD116C,0.06737*%
%ADD117R,0.06737X0.06737*%
%ADD118O,0.33209X0.17005*%
%ADD119C,0.06800*%
%ADD120R,0.06800X0.06800*%
%ADD121C,0.25210*%
%ADD122C,0.28359*%
%ADD123C,0.07296*%
%ADD124R,0.07296X0.07296*%
%ADD125R,0.06824X0.06824*%
%ADD126C,0.06824*%
%ADD127C,0.13855*%
%ADD128C,0.06422*%
%ADD129R,0.06422X0.06422*%
%ADD130C,0.05753*%
%ADD131R,0.05753X0.05753*%
%ADD132O,0.09461X0.18123*%
%ADD133R,0.05753X0.05753*%
%ADD134C,0.07099*%
%ADD135R,0.07099X0.07099*%
%ADD136C,0.06781*%
%ADD137C,0.06525*%
%ADD138R,0.06525X0.06525*%
%ADD139O,0.08280X0.15761*%
%ADD140O,0.15761X0.08280*%
%ADD141R,0.07099X0.07099*%
%ADD142R,0.06737X0.06737*%
%ADD143C,0.02800*%
%ADD144C,0.03200*%
D112*
X47638Y577165D02*
D03*
Y567323D02*
D03*
Y550394D02*
D03*
X37795Y577165D02*
D03*
X47638Y558661D02*
D03*
X37795Y568898D02*
D03*
Y550394D02*
D03*
D113*
X25984Y537205D02*
D03*
Y590354D02*
D03*
D114*
X37795Y558661D02*
D03*
D115*
X22835Y563780D02*
D03*
D116*
X31590Y349356D02*
D03*
Y338450D02*
D03*
Y327545D02*
D03*
Y316639D02*
D03*
Y305734D02*
D03*
Y294828D02*
D03*
Y283923D02*
D03*
Y273017D02*
D03*
Y262112D02*
D03*
Y251206D02*
D03*
Y240301D02*
D03*
Y229395D02*
D03*
X43145Y354691D02*
D03*
Y343785D02*
D03*
Y332880D02*
D03*
Y321974D02*
D03*
Y311069D02*
D03*
Y300163D02*
D03*
Y289257D02*
D03*
Y278352D02*
D03*
Y267446D02*
D03*
Y256541D02*
D03*
Y245635D02*
D03*
Y234730D02*
D03*
X449206Y501848D02*
D03*
X459206D02*
D03*
X469206D02*
D03*
X479206D02*
D03*
X489206D02*
D03*
X499206D02*
D03*
X509206D02*
D03*
X519206D02*
D03*
X459206Y451848D02*
D03*
X469206D02*
D03*
X479206D02*
D03*
X489206D02*
D03*
X499206D02*
D03*
X509206D02*
D03*
X519206D02*
D03*
Y491848D02*
D03*
Y481848D02*
D03*
D117*
X43145Y223824D02*
D03*
D118*
X37200Y382486D02*
D03*
Y197289D02*
D03*
D119*
X429848Y35667D02*
D03*
X419848D02*
D03*
X429848Y45667D02*
D03*
X419848D02*
D03*
X405833Y11561D02*
D03*
X395833D02*
D03*
X385833D02*
D03*
X375833D02*
D03*
X365833D02*
D03*
X355833D02*
D03*
X405833Y21561D02*
D03*
X395833D02*
D03*
X385833D02*
D03*
X375833D02*
D03*
X365833D02*
D03*
X355833D02*
D03*
X345833Y11561D02*
D03*
Y21561D02*
D03*
X335833Y11561D02*
D03*
X325833D02*
D03*
X315833D02*
D03*
X305833D02*
D03*
X295833D02*
D03*
X285833D02*
D03*
X335833Y21561D02*
D03*
X325833D02*
D03*
X315833D02*
D03*
X305833D02*
D03*
X295833D02*
D03*
X285833D02*
D03*
X275833Y11561D02*
D03*
Y21561D02*
D03*
X265833Y11561D02*
D03*
X255833D02*
D03*
X245833D02*
D03*
X235833D02*
D03*
X225833D02*
D03*
X215833D02*
D03*
X265833Y21561D02*
D03*
X255833D02*
D03*
X245833D02*
D03*
X235833D02*
D03*
X225833D02*
D03*
X62977Y185316D02*
D03*
Y235316D02*
D03*
Y245316D02*
D03*
Y195316D02*
D03*
Y205316D02*
D03*
Y215316D02*
D03*
Y225316D02*
D03*
Y255316D02*
D03*
Y265316D02*
D03*
Y275316D02*
D03*
X76075Y296202D02*
D03*
Y346202D02*
D03*
Y356202D02*
D03*
Y306202D02*
D03*
Y316202D02*
D03*
Y326202D02*
D03*
Y336202D02*
D03*
Y366202D02*
D03*
Y376202D02*
D03*
Y386202D02*
D03*
X63003Y296202D02*
D03*
Y346202D02*
D03*
Y356202D02*
D03*
Y306202D02*
D03*
Y316202D02*
D03*
Y326202D02*
D03*
Y336202D02*
D03*
Y366202D02*
D03*
Y376202D02*
D03*
Y386202D02*
D03*
X76533Y185423D02*
D03*
Y235423D02*
D03*
Y245423D02*
D03*
Y195423D02*
D03*
Y205423D02*
D03*
Y215423D02*
D03*
Y225423D02*
D03*
Y255423D02*
D03*
Y265423D02*
D03*
Y275423D02*
D03*
D120*
X215833Y21561D02*
D03*
D121*
X196659Y16561D02*
D03*
X425006D02*
D03*
Y209474D02*
D03*
X196659D02*
D03*
D122*
X650000Y25000D02*
D03*
Y645000D02*
D03*
X130000D02*
D03*
X40000Y25000D02*
D03*
D123*
X148689Y8588D02*
D03*
X131056Y8404D02*
D03*
X271308Y250842D02*
D03*
X293307Y308780D02*
D03*
D124*
X148689Y18588D02*
D03*
X131056Y18404D02*
D03*
X271308Y260842D02*
D03*
X293307Y318780D02*
D03*
D125*
X109836Y9978D02*
D03*
X262998Y623901D02*
D03*
X413696Y391277D02*
D03*
D126*
X99836Y9978D02*
D03*
X109836Y19978D02*
D03*
X99836D02*
D03*
X109836Y29978D02*
D03*
X99836D02*
D03*
X252998Y643901D02*
D03*
X262998D02*
D03*
X252998Y633901D02*
D03*
X262998D02*
D03*
X252998Y623901D02*
D03*
X423696Y391277D02*
D03*
X413696Y381277D02*
D03*
X423696D02*
D03*
X413696Y371277D02*
D03*
X423696D02*
D03*
D127*
X41929Y609370D02*
D03*
Y656772D02*
D03*
X42599Y472680D02*
D03*
Y524412D02*
D03*
X64961Y472680D02*
D03*
Y524412D02*
D03*
X42285Y404152D02*
D03*
Y455885D02*
D03*
X64647Y404152D02*
D03*
Y455885D02*
D03*
X207912Y400836D02*
D03*
Y452568D02*
D03*
D128*
X52598Y627992D02*
D03*
Y637835D02*
D03*
X60472D02*
D03*
X53268Y484767D02*
D03*
Y494609D02*
D03*
Y502483D02*
D03*
X63583Y484767D02*
D03*
Y494609D02*
D03*
Y502483D02*
D03*
X52954Y416239D02*
D03*
Y426082D02*
D03*
Y433956D02*
D03*
X63269Y416239D02*
D03*
Y426082D02*
D03*
Y433956D02*
D03*
X197243Y422765D02*
D03*
Y430639D02*
D03*
Y440482D02*
D03*
D129*
X60472Y627992D02*
D03*
X53268Y512326D02*
D03*
X63583D02*
D03*
X52954Y443798D02*
D03*
X63269D02*
D03*
X197243Y412923D02*
D03*
D130*
X447238Y521165D02*
D03*
X437238D02*
D03*
X427238D02*
D03*
X417238D02*
D03*
X407238D02*
D03*
X397238D02*
D03*
X387238D02*
D03*
X447293Y539347D02*
D03*
X437293D02*
D03*
X427293D02*
D03*
X417293D02*
D03*
X407293D02*
D03*
X397293D02*
D03*
X387293D02*
D03*
X203752Y282442D02*
D03*
Y292442D02*
D03*
Y302442D02*
D03*
Y312442D02*
D03*
Y322442D02*
D03*
Y332442D02*
D03*
Y342442D02*
D03*
X494607Y352619D02*
D03*
Y342619D02*
D03*
Y332619D02*
D03*
Y322619D02*
D03*
Y312619D02*
D03*
Y302619D02*
D03*
Y292619D02*
D03*
X463866Y521165D02*
D03*
X473866D02*
D03*
X483866D02*
D03*
X493866D02*
D03*
X503866D02*
D03*
X513866D02*
D03*
X523866D02*
D03*
X381838Y254055D02*
D03*
X371838D02*
D03*
X361838D02*
D03*
X351838D02*
D03*
X341838D02*
D03*
X331838D02*
D03*
X321838D02*
D03*
X381838Y390551D02*
D03*
X371838D02*
D03*
X361838D02*
D03*
X351838D02*
D03*
X341838D02*
D03*
X331838D02*
D03*
X321838D02*
D03*
D131*
X377238Y521165D02*
D03*
X377293Y539347D02*
D03*
X533866Y521165D02*
D03*
X391838Y254055D02*
D03*
Y390551D02*
D03*
D132*
X614919Y466032D02*
D03*
D133*
X203752Y352442D02*
D03*
X494607Y282619D02*
D03*
D134*
X479907Y633189D02*
D03*
X489907D02*
D03*
X499907D02*
D03*
X365755D02*
D03*
X375755D02*
D03*
X385755D02*
D03*
X587837Y399091D02*
D03*
Y389091D02*
D03*
Y379091D02*
D03*
X360647Y455306D02*
D03*
Y465306D02*
D03*
Y475306D02*
D03*
X518813Y431926D02*
D03*
X508813D02*
D03*
X498813D02*
D03*
D135*
X469907Y633189D02*
D03*
X355755D02*
D03*
X488813Y431926D02*
D03*
D136*
X649735Y502918D02*
D03*
Y573784D02*
D03*
D137*
X644026Y556068D02*
D03*
Y544257D02*
D03*
Y532446D02*
D03*
Y520635D02*
D03*
X632215Y556068D02*
D03*
Y544257D02*
D03*
Y532446D02*
D03*
D138*
Y520635D02*
D03*
D139*
X638364Y466032D02*
D03*
D140*
X625569Y484497D02*
D03*
D141*
X587837Y369091D02*
D03*
X360647Y485306D02*
D03*
D142*
X449206Y451848D02*
D03*
D143*
X608200Y546000D02*
D03*
Y563400D02*
D03*
X633300Y580702D02*
D03*
X616765D02*
D03*
X627788D02*
D03*
X622276D02*
D03*
Y571600D02*
D03*
X627788D02*
D03*
X616765D02*
D03*
X633300D02*
D03*
X663900Y433100D02*
D03*
X121433Y447603D02*
D03*
X362100Y607600D02*
D03*
X366113Y567600D02*
D03*
X373200D02*
D03*
X213400Y582400D02*
D03*
X284900Y267200D02*
D03*
X393400Y481900D02*
D03*
X198700Y602500D02*
D03*
X160000Y597400D02*
D03*
X361200Y447800D02*
D03*
X180305Y578734D02*
D03*
Y583600D02*
D03*
X175200D02*
D03*
X111400Y524300D02*
D03*
X175200Y404600D02*
D03*
X331200Y154100D02*
D03*
X161100Y183100D02*
D03*
X322480Y184500D02*
D03*
X161100Y321154D02*
D03*
Y252289D02*
D03*
X402043Y186500D02*
D03*
X147800Y251700D02*
D03*
X381960Y187590D02*
D03*
X150000Y198700D02*
D03*
X296624Y192500D02*
D03*
X150000Y359700D02*
D03*
X373900Y187000D02*
D03*
X190400Y374719D02*
D03*
X379000Y180800D02*
D03*
X150000Y379700D02*
D03*
X261939Y179600D02*
D03*
X258400Y194200D02*
D03*
X161100Y311200D02*
D03*
X162800Y237300D02*
D03*
X179500Y247289D02*
D03*
X396619Y195300D02*
D03*
X344783Y28000D02*
D03*
X209721Y38779D02*
D03*
X149325Y243075D02*
D03*
X393200Y184100D02*
D03*
X176700Y340600D02*
D03*
X283400Y185100D02*
D03*
X161100Y193100D02*
D03*
X275800Y181300D02*
D03*
X177200Y242289D02*
D03*
X164000Y203075D02*
D03*
X279100Y185800D02*
D03*
X173800Y316154D02*
D03*
X308500Y194700D02*
D03*
X309500Y189200D02*
D03*
X167900Y188075D02*
D03*
X150000Y332400D02*
D03*
X337800Y204891D02*
D03*
X302338Y248962D02*
D03*
X118400Y169800D02*
D03*
X152000Y151500D02*
D03*
X104100Y225800D02*
D03*
X152000Y400000D02*
D03*
X404000Y303200D02*
D03*
X138500Y588500D02*
D03*
X555200Y303200D02*
D03*
X404000Y552000D02*
D03*
X523600Y551900D02*
D03*
X277102Y239489D02*
D03*
X323613Y326341D02*
D03*
X363013Y348041D02*
D03*
X106693Y522814D02*
D03*
X111367Y519220D02*
D03*
X113598Y534822D02*
D03*
X121258D02*
D03*
X349576Y445824D02*
D03*
X149206Y587011D02*
D03*
X95547Y595026D02*
D03*
X162045Y588976D02*
D03*
X393365Y458027D02*
D03*
X279503Y541365D02*
D03*
X276809Y587042D02*
D03*
X279959Y580222D02*
D03*
X283493Y622551D02*
D03*
X368800Y345800D02*
D03*
X568500Y4000D02*
D03*
X110300Y352500D02*
D03*
X112200Y223200D02*
D03*
X112300Y301200D02*
D03*
X105400Y243000D02*
D03*
X104800Y189000D02*
D03*
X172900Y330100D02*
D03*
X173600Y383500D02*
D03*
X145500Y454600D02*
D03*
X134700Y459900D02*
D03*
X106100Y450100D02*
D03*
X95700Y462900D02*
D03*
X108200Y475900D02*
D03*
X125700Y477000D02*
D03*
X106800Y437600D02*
D03*
X109900Y426300D02*
D03*
X116900Y425300D02*
D03*
X122300Y425400D02*
D03*
X131800Y473800D02*
D03*
X110100Y444100D02*
D03*
X97100Y487900D02*
D03*
Y495700D02*
D03*
X211000Y498600D02*
D03*
X123900Y457600D02*
D03*
X114800D02*
D03*
X123900Y466800D02*
D03*
X114800D02*
D03*
X173000Y466400D02*
D03*
X368100Y297700D02*
D03*
X288700Y244800D02*
D03*
X290800Y267200D02*
D03*
X165800Y145300D02*
D03*
X165600Y155400D02*
D03*
X73500Y466400D02*
D03*
X90000Y446700D02*
D03*
X86900Y530300D02*
D03*
X87000Y514900D02*
D03*
X624498Y320984D02*
D03*
Y337519D02*
D03*
Y326496D02*
D03*
Y332008D02*
D03*
X633600Y332324D02*
D03*
Y326812D02*
D03*
Y337835D02*
D03*
Y321300D02*
D03*
X620398Y375984D02*
D03*
Y392519D02*
D03*
Y381496D02*
D03*
Y387008D02*
D03*
X629500D02*
D03*
Y381496D02*
D03*
Y392519D02*
D03*
Y375984D02*
D03*
X600298D02*
D03*
Y392519D02*
D03*
Y381496D02*
D03*
Y387008D02*
D03*
X609400D02*
D03*
Y381496D02*
D03*
Y392519D02*
D03*
Y375984D02*
D03*
X152300Y463800D02*
D03*
X154700Y470800D02*
D03*
X153542Y453795D02*
D03*
X131700Y446700D02*
D03*
X135900Y467500D02*
D03*
X113300Y480300D02*
D03*
X110700Y499100D02*
D03*
X98200Y450000D02*
D03*
X89922Y460522D02*
D03*
X98400Y535700D02*
D03*
X76800Y514900D02*
D03*
X102800Y446600D02*
D03*
X126600Y438400D02*
D03*
X129700Y442300D02*
D03*
X90100Y443100D02*
D03*
X128980Y485478D02*
D03*
X171900Y496100D02*
D03*
X145558Y513749D02*
D03*
X100714Y455386D02*
D03*
X380200Y439900D02*
D03*
X152958Y518449D02*
D03*
X339400Y318800D02*
D03*
X349900Y578000D02*
D03*
X280500Y495500D02*
D03*
X380200Y444400D02*
D03*
X358500Y438700D02*
D03*
X364300D02*
D03*
X364923Y424962D02*
D03*
X277200Y525100D02*
D03*
X515300Y563700D02*
D03*
X419245Y443875D02*
D03*
X490400Y556500D02*
D03*
X398524Y480218D02*
D03*
X403700Y477953D02*
D03*
X407600Y475100D02*
D03*
X428346Y497244D02*
D03*
X502900Y555300D02*
D03*
X357600Y425000D02*
D03*
X388200Y554900D02*
D03*
X502539Y570079D02*
D03*
Y562700D02*
D03*
X401700Y554000D02*
D03*
X388200Y559843D02*
D03*
X373100Y317200D02*
D03*
X403500Y444100D02*
D03*
X461024Y577165D02*
D03*
X480709Y570735D02*
D03*
Y567454D02*
D03*
X467200Y578700D02*
D03*
X369315Y302215D02*
D03*
X373700Y300800D02*
D03*
X270600Y575900D02*
D03*
X273800Y578500D02*
D03*
X87600Y596700D02*
D03*
X111206Y531500D02*
D03*
X148700Y606700D02*
D03*
X350022Y625591D02*
D03*
X353959D02*
D03*
X468110D02*
D03*
X464173D02*
D03*
X491339Y620079D02*
D03*
X373644Y616929D02*
D03*
X487795D02*
D03*
X373644Y620079D02*
D03*
X484252D02*
D03*
X487795D02*
D03*
X370100D02*
D03*
X377187D02*
D03*
X477802Y607294D02*
D03*
X491560D02*
D03*
X484612D02*
D03*
X198700Y635100D02*
D03*
X178700Y598400D02*
D03*
X240712Y606980D02*
D03*
Y590480D02*
D03*
X388278Y314238D02*
D03*
X385200Y318000D02*
D03*
X111206Y554664D02*
D03*
X130306D02*
D03*
X104500Y570800D02*
D03*
X128306Y578664D02*
D03*
X221814Y546185D02*
D03*
X217089D02*
D03*
X212365D02*
D03*
X207641D02*
D03*
X205000Y582494D02*
D03*
X208451D02*
D03*
X73800Y607094D02*
D03*
X82600Y607100D02*
D03*
X96100Y642594D02*
D03*
X93526Y642945D02*
D03*
X310227Y392135D02*
D03*
X389370Y300394D02*
D03*
X385039D02*
D03*
X347600Y274870D02*
D03*
X332283Y298032D02*
D03*
X347600Y285500D02*
D03*
Y279988D02*
D03*
X331496Y274803D02*
D03*
Y285433D02*
D03*
Y279921D02*
D03*
X423228Y497244D02*
D03*
X378130Y479921D02*
D03*
X502539Y577165D02*
D03*
X508051Y557480D02*
D03*
X387973Y570079D02*
D03*
Y577165D02*
D03*
X373228Y564173D02*
D03*
X351575Y557087D02*
D03*
X366800Y612300D02*
D03*
X379600D02*
D03*
X364477Y596063D02*
D03*
X369792D02*
D03*
X375107D02*
D03*
X369792Y589370D02*
D03*
X359163Y596063D02*
D03*
X380422D02*
D03*
X351596Y622441D02*
D03*
X373644Y623622D02*
D03*
X377187D02*
D03*
X332283Y584252D02*
D03*
X337008D02*
D03*
X341732D02*
D03*
X346457D02*
D03*
X389370D02*
D03*
X394094D02*
D03*
X398819D02*
D03*
X403543D02*
D03*
X458709D02*
D03*
X465748Y622441D02*
D03*
X491339Y623622D02*
D03*
X487795D02*
D03*
X449260Y584252D02*
D03*
X453984D02*
D03*
X463433D02*
D03*
X516929D02*
D03*
X512205D02*
D03*
X507480D02*
D03*
X502756D02*
D03*
X493686Y611600D02*
D03*
X480300D02*
D03*
X494882Y596063D02*
D03*
X473622D02*
D03*
X484252Y589370D02*
D03*
X489567Y596063D02*
D03*
X484252D02*
D03*
X478937D02*
D03*
X578662Y312551D02*
D03*
X595198D02*
D03*
X584174D02*
D03*
X589686D02*
D03*
X589370Y321654D02*
D03*
X583858D02*
D03*
X594882D02*
D03*
X578346D02*
D03*
X651504Y310471D02*
D03*
X662528Y314408D02*
D03*
X647567Y304959D02*
D03*
X662528Y324644D02*
D03*
X652292D02*
D03*
X647174Y358896D02*
D03*
X638512Y362046D02*
D03*
X642843Y365983D02*
D03*
X650717Y370313D02*
D03*
X646386D02*
D03*
X561347Y434093D02*
D03*
Y450235D02*
D03*
X571189Y434093D02*
D03*
X551898D02*
D03*
X571189Y444723D02*
D03*
Y450235D02*
D03*
X551898Y444723D02*
D03*
Y450235D02*
D03*
X617323Y524016D02*
D03*
Y519094D02*
D03*
Y528937D02*
D03*
X626378Y533858D02*
D03*
Y514173D02*
D03*
Y528937D02*
D03*
Y519094D02*
D03*
Y524016D02*
D03*
X607874Y519094D02*
D03*
Y524016D02*
D03*
Y528937D02*
D03*
X623622Y511417D02*
D03*
X611417D02*
D03*
X607874Y514173D02*
D03*
X623622Y536614D02*
D03*
X611417D02*
D03*
X607874Y533858D02*
D03*
X366142Y583858D02*
D03*
Y580577D02*
D03*
Y574016D02*
D03*
Y570735D02*
D03*
Y564173D02*
D03*
X373228Y583858D02*
D03*
Y580577D02*
D03*
Y577297D02*
D03*
Y570735D02*
D03*
X487795Y564173D02*
D03*
Y567454D02*
D03*
Y570735D02*
D03*
Y577297D02*
D03*
Y580577D02*
D03*
Y583858D02*
D03*
X480709Y564173D02*
D03*
Y574016D02*
D03*
Y580577D02*
D03*
Y583858D02*
D03*
D144*
X338976Y576772D02*
D03*
M02*
